<svg width="643" height="628" viewBox="0 0 643 628" fill="none" xmlns="http://www.w3.org/2000/svg">
<circle cx="326.5" cy="304" r="302.5" fill="#EDEDE8" stroke="#DA993A" stroke-width="2"/>
<circle cx="326.499" cy="304.5" r="216.591" fill="#CCA05F"/>
<circle cx="326.5" cy="304.75" r="151.5" fill="#134524"/>
<circle cx="326.5" cy="304" r="302.5" transform="rotate(-22.5 326.5 304)" stroke="#DA993A" stroke-width="2"/>
<line x1="66.809" y1="460.713" x2="585.16" y2="148.724" stroke="#DA993A" stroke-width="2"/>
<circle cx="326.5" cy="304" r="302.5" transform="rotate(-45 326.5 304)" stroke="#DA993A" stroke-width="2"/>
<line x1="128.659" y1="532.879" x2="523.882" y2="74.8141" stroke="#DA993A" stroke-width="2"/>
<circle cx="326.498" cy="303.998" r="302.5" transform="rotate(-90 326.498 303.998)" stroke="#DA993A" stroke-width="2"/>
<path d="M283.708 603.458L269.963 517.84L321.809 416.543L327.392 301.687L360.892 187.629L327.39 1.78596" stroke="#DA993A" stroke-width="2"/>
<line x1="356.363" y1="375.269" x2="294.901" y2="227.545" stroke="#CCA05F" stroke-width="10"/>
<circle cx="326.497" cy="303.999" r="302.5" transform="rotate(-112.5 326.497 303.999)" stroke="#DA993A" stroke-width="2"/>
<line x1="385.739" y1="600.642" x2="265.292" y2="7.75312" stroke="#DA993A" stroke-width="2"/>
<circle cx="326.498" cy="303.998" r="302.5" transform="rotate(-135 326.498 303.998)" stroke="#DA993A" stroke-width="2"/>
<line x1="468.62" y1="571.035" x2="182.614" y2="37.9068" stroke="#DA993A" stroke-width="2"/>
<circle cx="326.499" cy="303.999" r="302.5" transform="rotate(-157.5 326.499 303.999)" stroke="#DA993A" stroke-width="2"/>
<path d="M605.589 420.684L510.876 341.376L362.613 341.376L238.576 218.308L154.269 270.581L46.6419 189.16" stroke="#DA993A" stroke-width="2"/>
<circle cx="326.499" cy="303.999" r="302.5" transform="rotate(-180 326.499 303.999)" stroke="#DA993A" stroke-width="2"/>
<path d="M619.243 227.786L438.869 250.932L327.171 305.248L150.499 311.499L34.2655 382.143" stroke="#DA993A" stroke-width="2"/>
<circle cx="326.499" cy="303.999" r="302.5" transform="rotate(157.5 326.499 303.999)" stroke="#DA993A" stroke-width="2"/>
<circle cx="326.498" cy="303.999" r="302.5" transform="rotate(135 326.498 303.999)" stroke="#DA993A" stroke-width="2"/>
<path d="M32.8437 196.334C-30.6314 349.576 47.8382 526.825 206.906 592.713C365.974 658.601 546.793 588.754 610.268 435.511C673.744 282.269 595.274 105.02 436.206 39.1324C277.139 -26.7556 96.3188 43.0915 32.8437 196.334Z" stroke="#DA993A" stroke-width="20"/>
<line x1="450.181" y1="19.604" x2="209.974" y2="583.862" stroke="#DA993A" stroke-width="2"/>
<circle cx="326.499" cy="303.999" r="15" fill="#CCA05F"/>
<circle cx="326.499" cy="303.999" r="15" fill="#CCA05F"/>
<circle cx="326.499" cy="303.999" r="15" fill="#CCA05F"/>
<circle cx="356.534" cy="375.199" r="10" transform="rotate(-22.5901 356.534 375.199)" fill="#CCA05F"/>
<circle cx="295.045" cy="227.484" r="10" transform="rotate(-22.5901 295.045 227.484)" fill="#CCA05F"/>
<circle cx="400.89" cy="275.696" r="10" transform="rotate(-112.59 400.89 275.696)" fill="#CCA05F"/>
<line x1="406.032" y1="273.371" x2="258.308" y2="334.833" stroke="#CCA05F" stroke-width="10"/>
<circle cx="253.167" cy="337.157" r="10" transform="rotate(-112.59 253.167 337.157)" fill="#CCA05F"/>
<circle cx="420.652" cy="51.4678" r="24" fill="#E74040"/>
<path d="M420.109 60.7078C418.589 60.7078 417.357 60.3238 416.413 59.5558C415.469 58.7718 414.941 57.7238 414.829 56.4118H417.397C417.477 57.0518 417.749 57.5478 418.213 57.8998C418.677 58.2518 419.317 58.4278 420.133 58.4278C421.045 58.4278 421.733 58.1878 422.197 57.7078C422.677 57.2118 422.917 56.5238 422.917 55.6438V53.9398C422.917 53.0438 422.685 52.3558 422.221 51.8758C421.757 51.3798 421.069 51.1318 420.157 51.1318C419.581 51.1318 419.085 51.2678 418.669 51.5398C418.253 51.7958 417.949 52.1558 417.757 52.6198H415.189L415.309 42.9478H424.861V45.2998H417.781L417.733 50.7478H418.405L417.709 51.3718C417.709 50.6198 418.005 50.0278 418.597 49.5958C419.189 49.1638 419.981 48.9478 420.973 48.9478C422.397 48.9478 423.501 49.3878 424.285 50.2678C425.085 51.1318 425.485 52.3558 425.485 53.9398V55.6438C425.485 57.1958 425.013 58.4278 424.069 59.3398C423.125 60.2518 421.805 60.7078 420.109 60.7078Z" fill="white"/>
<circle cx="452.816" cy="111.91" r="24" fill="#3C3C3C"/>
<path d="M453.321 121.15C452.201 121.15 451.233 120.958 450.417 120.574C449.601 120.19 448.969 119.646 448.521 118.942C448.073 118.222 447.849 117.39 447.849 116.446C447.849 115.39 448.137 114.486 448.713 113.734C449.289 112.982 450.177 112.326 451.377 111.766L453.897 110.59C454.537 110.286 455.033 109.886 455.385 109.39C455.737 108.878 455.913 108.318 455.913 107.71C455.913 106.99 455.681 106.422 455.217 106.006C454.753 105.59 454.121 105.382 453.321 105.382C452.521 105.382 451.881 105.598 451.401 106.03C450.937 106.446 450.705 107.014 450.705 107.734C450.705 108.326 450.881 108.878 451.233 109.39C451.585 109.886 452.065 110.278 452.673 110.566L455.193 111.718C456.457 112.31 457.369 112.99 457.929 113.758C458.505 114.51 458.793 115.406 458.793 116.446C458.793 117.886 458.297 119.03 457.305 119.878C456.329 120.726 455.001 121.15 453.321 121.15ZM453.321 118.894C454.217 118.894 454.929 118.662 455.457 118.198C455.985 117.718 456.249 117.094 456.249 116.326C456.249 115.702 456.073 115.126 455.721 114.598C455.369 114.054 454.881 113.63 454.257 113.326L451.665 112.102C450.481 111.542 449.601 110.902 449.025 110.182C448.449 109.462 448.161 108.598 448.161 107.59C448.161 106.71 448.369 105.934 448.785 105.262C449.217 104.59 449.817 104.07 450.585 103.702C451.353 103.318 452.265 103.126 453.321 103.126C454.377 103.126 455.289 103.318 456.057 103.702C456.825 104.07 457.417 104.59 457.833 105.262C458.249 105.934 458.457 106.71 458.457 107.59C458.457 108.614 458.169 109.478 457.593 110.182C457.033 110.886 456.153 111.534 454.953 112.126L452.337 113.35C451.729 113.638 451.249 114.046 450.897 114.574C450.561 115.102 450.393 115.67 450.393 116.278C450.393 117.062 450.657 117.694 451.185 118.174C451.713 118.654 452.425 118.894 453.321 118.894Z" fill="white"/>
<circle cx="534.197" cy="141.5" r="24" fill="#E74040"/>
<path d="M530.582 149.5L536.87 134.356H530.75V136.924H528.182V131.98H539.438V134.476L533.366 149.5H530.582Z" fill="white"/>
<circle cx="558.199" cy="223.32" r="24" fill="#3C3C3C"/>
<path d="M546.397 231.32V229.016H551.053V216.056L546.373 219.536V216.728L550.381 213.8H553.645V229.016H557.413V231.32H546.397ZM565.923 231.56C564.771 231.56 563.763 231.32 562.899 230.84C562.035 230.36 561.363 229.688 560.883 228.824C560.403 227.944 560.163 226.936 560.163 225.8C560.163 224.936 560.291 224.072 560.547 223.208C560.819 222.328 561.203 221.488 561.699 220.688L565.971 213.8H568.851L563.763 221.864L563.883 221.936C564.203 221.472 564.627 221.12 565.155 220.88C565.699 220.624 566.299 220.496 566.955 220.496C567.899 220.496 568.723 220.72 569.427 221.168C570.131 221.616 570.675 222.248 571.059 223.064C571.443 223.864 571.635 224.816 571.635 225.92C571.635 227.04 571.395 228.024 570.915 228.872C570.435 229.72 569.771 230.384 568.923 230.864C568.075 231.328 567.075 231.56 565.923 231.56ZM565.899 229.328C566.859 229.328 567.627 229.016 568.203 228.392C568.779 227.768 569.067 226.944 569.067 225.92C569.067 224.896 568.779 224.072 568.203 223.448C567.627 222.824 566.859 222.512 565.899 222.512C564.939 222.512 564.171 222.824 563.595 223.448C563.019 224.072 562.731 224.896 562.731 225.92C562.731 226.944 563.019 227.768 563.595 228.392C564.171 229.016 564.939 229.328 565.899 229.328Z" fill="white"/>
<circle cx="594.988" cy="296.006" r="24" fill="#E74040"/>
<path d="M583.186 304.006V301.702H587.842V288.742L583.162 292.222V289.414L587.17 286.486H590.434V301.702H594.202V304.006H583.186ZM602.472 304.246C601.368 304.246 600.408 304.038 599.592 303.622C598.776 303.206 598.144 302.622 597.696 301.87C597.264 301.102 597.048 300.214 597.048 299.206H599.64C599.64 300.086 599.888 300.774 600.384 301.27C600.896 301.766 601.6 302.014 602.496 302.014C603.408 302.014 604.112 301.758 604.608 301.246C605.104 300.734 605.352 300.054 605.352 299.206V297.91C605.352 297.014 605.104 296.326 604.608 295.846C604.112 295.35 603.408 295.102 602.496 295.102H600.624V292.654L604.704 288.766H597.792V286.486H607.344V288.934L602.52 293.47V292.846C604.184 292.846 605.504 293.302 606.48 294.214C607.456 295.126 607.944 296.35 607.944 297.886V299.206C607.944 300.214 607.72 301.102 607.272 301.87C606.824 302.622 606.184 303.206 605.352 303.622C604.536 304.038 603.576 304.246 602.472 304.246Z" fill="white"/>
<circle cx="582.199" cy="392.739" r="24" fill="#3C3C3C"/>
<path d="M576.544 400.739V398.171L581.968 392.579C582.8 391.715 583.408 390.939 583.792 390.251C584.192 389.547 584.392 388.851 584.392 388.163C584.392 387.267 584.144 386.563 583.648 386.051C583.168 385.539 582.504 385.283 581.656 385.283C580.728 385.283 579.992 385.555 579.448 386.099C578.92 386.627 578.656 387.355 578.656 388.283H576.064C576.096 387.195 576.344 386.259 576.808 385.475C577.272 384.675 577.92 384.059 578.752 383.627C579.584 383.195 580.56 382.979 581.68 382.979C582.752 382.979 583.688 383.187 584.488 383.603C585.288 384.019 585.904 384.603 586.336 385.355C586.768 386.107 586.984 386.995 586.984 388.019C586.984 389.059 586.712 390.075 586.168 391.067C585.64 392.059 584.768 393.163 583.552 394.379L579.592 398.387H587.248V400.739H576.544Z" fill="white"/>
<circle cx="454" cy="552.5" r="24" fill="#E74040"/>
<path d="M453.289 560.74C452.185 560.74 451.225 560.532 450.409 560.116C449.593 559.7 448.961 559.116 448.513 558.364C448.081 557.596 447.865 556.708 447.865 555.7H450.457C450.457 556.58 450.705 557.268 451.201 557.764C451.713 558.26 452.417 558.508 453.313 558.508C454.225 558.508 454.929 558.252 455.425 557.74C455.921 557.228 456.169 556.548 456.169 555.7V554.404C456.169 553.508 455.921 552.82 455.425 552.34C454.929 551.844 454.225 551.596 453.313 551.596H451.441V549.148L455.521 545.26H448.609V542.98H458.161V545.428L453.337 549.964V549.34C455.001 549.34 456.321 549.796 457.297 550.708C458.273 551.62 458.761 552.844 458.761 554.38V555.7C458.761 556.708 458.537 557.596 458.089 558.364C457.641 559.116 457.001 559.7 456.169 560.116C455.353 560.532 454.393 560.74 453.289 560.74Z" fill="white"/>
<circle cx="324" cy="557.512" r="24" fill="#3C3C3C"/>
<path d="M312.197 565.512V563.208H316.853V550.248L312.173 553.728V550.92L316.181 547.992H319.445V563.208H323.213V565.512H312.197ZM326.54 565.512V562.944L331.964 557.352C332.796 556.488 333.404 555.712 333.788 555.024C334.188 554.32 334.388 553.624 334.388 552.936C334.388 552.04 334.14 551.336 333.644 550.824C333.164 550.312 332.5 550.056 331.652 550.056C330.724 550.056 329.988 550.328 329.444 550.872C328.916 551.4 328.652 552.128 328.652 553.056H326.06C326.092 551.968 326.34 551.032 326.804 550.248C327.268 549.448 327.916 548.832 328.748 548.4C329.58 547.968 330.556 547.752 331.676 547.752C332.748 547.752 333.684 547.96 334.484 548.376C335.284 548.792 335.9 549.376 336.332 550.128C336.764 550.88 336.98 551.768 336.98 552.792C336.98 553.832 336.708 554.848 336.164 555.84C335.636 556.832 334.764 557.936 333.548 559.152L329.588 563.16H337.244V565.512H326.54Z" fill="white"/>
<circle cx="242.271" cy="565.512" r="24" fill="#E74040"/>
<path d="M230.469 574.512V572.208H235.125V559.248L230.445 562.728V559.92L234.453 556.992H237.717V572.208H241.485V574.512H230.469ZM249.923 574.752C248.403 574.752 247.171 574.368 246.227 573.6C245.283 572.816 244.755 571.768 244.643 570.456H247.211C247.291 571.096 247.563 571.592 248.027 571.944C248.491 572.296 249.131 572.472 249.947 572.472C250.859 572.472 251.547 572.232 252.011 571.752C252.491 571.256 252.731 570.568 252.731 569.688V567.984C252.731 567.088 252.499 566.4 252.035 565.92C251.571 565.424 250.883 565.176 249.971 565.176C249.395 565.176 248.899 565.312 248.483 565.584C248.067 565.84 247.763 566.2 247.571 566.664H245.003L245.123 556.992H254.675V559.344H247.595L247.547 564.792H248.219L247.523 565.416C247.523 564.664 247.819 564.072 248.411 563.64C249.003 563.208 249.795 562.992 250.787 562.992C252.211 562.992 253.315 563.432 254.099 564.312C254.899 565.176 255.299 566.4 255.299 567.984V569.688C255.299 571.24 254.827 572.472 253.883 573.384C252.939 574.296 251.619 574.752 249.923 574.752Z" fill="white"/>
<circle cx="187" cy="504.5" r="24" fill="#3C3C3C"/>
<path d="M187.529 513.74C186.377 513.74 185.369 513.5 184.505 513.02C183.641 512.54 182.969 511.868 182.489 511.004C182.009 510.124 181.769 509.116 181.769 507.98C181.769 507.116 181.897 506.252 182.153 505.388C182.425 504.508 182.809 503.668 183.305 502.868L187.577 495.98H190.457L185.369 504.044L185.489 504.116C185.809 503.652 186.233 503.3 186.761 503.06C187.305 502.804 187.905 502.676 188.561 502.676C189.505 502.676 190.329 502.9 191.033 503.348C191.737 503.796 192.281 504.428 192.665 505.244C193.049 506.044 193.241 506.996 193.241 508.1C193.241 509.22 193.001 510.204 192.521 511.052C192.041 511.9 191.377 512.564 190.529 513.044C189.681 513.508 188.681 513.74 187.529 513.74ZM187.505 511.508C188.465 511.508 189.233 511.196 189.809 510.572C190.385 509.948 190.673 509.124 190.673 508.1C190.673 507.076 190.385 506.252 189.809 505.628C189.233 505.004 188.465 504.692 187.505 504.692C186.545 504.692 185.777 505.004 185.201 505.628C184.625 506.252 184.337 507.076 184.337 508.1C184.337 509.124 184.625 509.948 185.201 510.572C185.777 511.196 186.545 511.508 187.505 511.508Z" fill="white"/>
<circle cx="100.5" cy="480.5" r="24" fill="#E74040"/>
<path d="M98.0527 489.5L103.141 481.436L103.021 481.364C102.701 481.828 102.269 482.188 101.725 482.444C101.197 482.684 100.605 482.804 99.9487 482.804C99.0047 482.804 98.1807 482.58 97.4767 482.132C96.7727 481.684 96.2287 481.052 95.8447 480.236C95.4607 479.42 95.2687 478.468 95.2687 477.38C95.2687 476.244 95.5087 475.26 95.9887 474.428C96.4687 473.58 97.1327 472.924 97.9807 472.46C98.8447 471.98 99.8447 471.74 100.981 471.74C102.133 471.74 103.141 471.98 104.005 472.46C104.869 472.94 105.541 473.612 106.021 474.476C106.501 475.34 106.741 476.348 106.741 477.5C106.741 478.348 106.605 479.212 106.333 480.092C106.077 480.972 105.701 481.812 105.205 482.612L100.933 489.5H98.0527ZM101.005 480.788C101.965 480.788 102.733 480.476 103.309 479.852C103.885 479.228 104.173 478.404 104.173 477.38C104.173 476.356 103.885 475.532 103.309 474.908C102.733 474.284 101.965 473.972 101.005 473.972C100.045 473.972 99.2767 474.284 98.7007 474.908C98.1247 475.532 97.8367 476.356 97.8367 477.38C97.8367 478.404 98.1247 479.228 98.7007 479.852C99.2767 480.476 100.045 480.788 101.005 480.788Z" fill="white"/>
<circle cx="100.5" cy="367.772" r="24" fill="#3C3C3C"/>
<path d="M95.8927 376.772V374.468H100.549V361.508L95.8687 364.988V362.18L99.8767 359.252H103.141V374.468H106.909V376.772H95.8927Z" fill="white"/>
<circle cx="67" cy="269.237" r="24" fill="#E74040"/>
<path d="M69.9047 277.237V273.589H62.0567V269.701L68.8727 259.717H71.7527L64.5527 270.325V271.261H69.9047V267.157H72.4727V277.237H69.9047Z" fill="white"/>
<circle cx="115" cy="163.5" r="24" fill="#134524"/>
<path d="M115.505 172.74C114.401 172.74 113.441 172.524 112.625 172.092C111.825 171.66 111.201 171.06 110.753 170.292C110.305 169.508 110.081 168.596 110.081 167.556V159.924C110.081 158.868 110.297 157.956 110.729 157.188C111.177 156.42 111.809 155.82 112.625 155.388C113.441 154.956 114.401 154.74 115.505 154.74C116.625 154.74 117.585 154.956 118.385 155.388C119.201 155.82 119.825 156.42 120.257 157.188C120.705 157.956 120.929 158.868 120.929 159.924V167.556C120.929 168.596 120.705 169.508 120.257 170.292C119.809 171.06 119.177 171.66 118.361 172.092C117.561 172.524 116.609 172.74 115.505 172.74ZM115.505 170.508C116.401 170.508 117.113 170.236 117.641 169.692C118.185 169.148 118.457 168.436 118.457 167.556V159.924C118.457 159.044 118.185 158.332 117.641 157.788C117.113 157.244 116.401 156.972 115.505 156.972C114.609 156.972 113.889 157.244 113.345 157.788C112.817 158.332 112.553 159.044 112.553 159.924V167.556C112.553 168.436 112.817 169.148 113.345 169.692C113.889 170.236 114.609 170.508 115.505 170.508ZM115.505 165.228C115.057 165.228 114.689 165.084 114.401 164.796C114.129 164.508 113.993 164.132 113.993 163.668C113.993 163.22 114.129 162.86 114.401 162.588C114.689 162.3 115.057 162.156 115.505 162.156C115.953 162.156 116.313 162.3 116.585 162.588C116.873 162.86 117.017 163.22 117.017 163.668C117.017 164.132 116.873 164.508 116.585 164.796C116.313 165.084 115.953 165.228 115.505 165.228Z" fill="white"/>
<circle cx="281.094" cy="38.5" r="24" fill="#E74040"/>
<path d="M268.292 46.5V44.196H272.948V31.236L268.268 34.716V31.908L272.276 28.98H275.54V44.196H279.308V46.5H268.292ZM282.682 46.5V44.196H287.338V31.236L282.658 34.716V31.908L286.666 28.98H289.93V44.196H293.698V46.5H282.682Z" fill="white"/>
<circle cx="345.872" cy="54" r="24" fill="#3C3C3C"/>
<path d="M333.069 63V60.696H337.725V47.736L333.045 51.216V48.408L337.053 45.48H340.317V60.696H344.085V63H333.069ZM352.572 63.24C351.468 63.24 350.508 63.024 349.692 62.592C348.892 62.16 348.268 61.56 347.82 60.792C347.372 60.008 347.148 59.096 347.148 58.056V50.424C347.148 49.368 347.364 48.456 347.796 47.688C348.244 46.92 348.876 46.32 349.692 45.888C350.508 45.456 351.468 45.24 352.572 45.24C353.692 45.24 354.652 45.456 355.452 45.888C356.268 46.32 356.892 46.92 357.324 47.688C357.772 48.456 357.996 49.368 357.996 50.424V58.056C357.996 59.096 357.772 60.008 357.324 60.792C356.876 61.56 356.244 62.16 355.428 62.592C354.628 63.024 353.676 63.24 352.572 63.24ZM352.572 61.008C353.468 61.008 354.18 60.736 354.708 60.192C355.252 59.648 355.524 58.936 355.524 58.056V50.424C355.524 49.544 355.252 48.832 354.708 48.288C354.18 47.744 353.468 47.472 352.572 47.472C351.676 47.472 350.956 47.744 350.412 48.288C349.884 48.832 349.62 49.544 349.62 50.424V58.056C349.62 58.936 349.884 59.648 350.412 60.192C350.956 60.736 351.676 61.008 352.572 61.008ZM352.572 55.728C352.124 55.728 351.756 55.584 351.468 55.296C351.196 55.008 351.06 54.632 351.06 54.168C351.06 53.72 351.196 53.36 351.468 53.088C351.756 52.8 352.124 52.656 352.572 52.656C353.02 52.656 353.38 52.8 353.652 53.088C353.94 53.36 354.084 53.72 354.084 54.168C354.084 54.632 353.94 55.008 353.652 55.296C353.38 55.584 353.02 55.728 352.572 55.728Z" fill="white"/>
<path d="M220.167 147.997C220.422 147.213 221.532 147.216 221.782 148.001L223.112 152.164C223.224 152.516 223.55 152.754 223.92 152.754H228.321C229.142 152.754 229.484 153.805 228.82 154.288L225.273 156.872C224.976 157.088 224.852 157.47 224.965 157.819L226.325 162.015C226.578 162.797 225.683 163.446 225.019 162.962L221.478 160.383C221.181 160.167 220.779 160.167 220.481 160.382L216.902 162.975C216.237 163.456 215.344 162.807 215.597 162.026L216.96 157.819C217.073 157.47 216.949 157.088 216.653 156.872L213.106 154.288C212.442 153.805 212.784 152.754 213.605 152.754H218.009C218.377 152.754 218.703 152.518 218.816 152.168L220.167 147.997Z" fill="#EDEDE8"/>
<path d="M148.167 265.009C148.422 264.225 149.532 264.227 149.782 265.012L151.112 269.176C151.224 269.528 151.55 269.766 151.92 269.766H156.321C157.142 269.766 157.484 270.817 156.82 271.3L153.273 273.884C152.976 274.1 152.852 274.482 152.965 274.831L154.325 279.027C154.578 279.809 153.683 280.458 153.019 279.974L149.478 277.395C149.181 277.179 148.779 277.178 148.481 277.394L144.902 279.987C144.237 280.468 143.344 279.819 143.597 279.038L144.96 274.831C145.073 274.482 144.949 274.1 144.653 273.884L141.106 271.3C140.442 270.817 140.784 269.766 141.605 269.766H146.009C146.377 269.766 146.703 269.529 146.816 269.179L148.167 265.009Z" fill="#EDEDE8"/>
<path d="M173.742 397.396C173.996 396.612 175.106 396.614 175.357 397.399L176.686 401.563C176.798 401.914 177.125 402.153 177.494 402.153H181.895C182.716 402.153 183.058 403.203 182.394 403.687L178.847 406.27C178.551 406.486 178.427 406.869 178.54 407.218L179.899 411.413C180.153 412.195 179.257 412.844 178.593 412.361L175.053 409.782C174.756 409.566 174.353 409.565 174.056 409.78L170.476 412.373C169.811 412.855 168.918 412.206 169.171 411.425L170.535 407.218C170.648 406.869 170.524 406.486 170.227 406.27L166.68 403.687C166.016 403.203 166.358 402.153 167.18 402.153H171.583C171.951 402.153 172.277 401.916 172.39 401.566L173.742 397.396Z" fill="#EDEDE8"/>
<path d="M291.242 477.009C291.496 476.225 292.606 476.227 292.857 477.012L294.186 481.176C294.298 481.528 294.625 481.766 294.994 481.766H299.395C300.216 481.766 300.558 482.817 299.894 483.3L296.347 485.884C296.051 486.1 295.927 486.482 296.04 486.831L297.399 491.027C297.653 491.809 296.757 492.458 296.093 491.974L292.553 489.395C292.256 489.179 291.853 489.178 291.556 489.394L287.976 491.987C287.311 492.468 286.418 491.819 286.671 491.038L288.035 486.831C288.148 486.482 288.024 486.1 287.727 485.884L284.18 483.3C283.516 482.817 283.858 481.766 284.68 481.766H289.083C289.451 481.766 289.777 481.529 289.89 481.179L291.242 477.009Z" fill="#EDEDE8"/>
<path d="M429.82 448.997C430.074 448.213 431.184 448.216 431.435 449.001L432.764 453.164C432.876 453.516 433.203 453.754 433.572 453.754H437.973C438.794 453.754 439.136 454.805 438.472 455.288L434.925 457.872C434.629 458.088 434.505 458.47 434.618 458.819L435.977 463.015C436.231 463.797 435.335 464.446 434.671 463.962L431.131 461.383C430.834 461.167 430.431 461.167 430.134 461.382L426.554 463.975C425.889 464.456 424.996 463.807 425.249 463.026L426.613 458.819C426.726 458.47 426.602 458.088 426.305 457.872L422.758 455.288C422.094 454.805 422.436 453.754 423.258 453.754H427.661C428.029 453.754 428.355 453.518 428.468 453.168L429.82 448.997Z" fill="#EDEDE8"/>
<path d="M509.402 335.009C509.656 334.225 510.766 334.227 511.017 335.012L512.346 339.176C512.458 339.528 512.785 339.766 513.154 339.766H517.555C518.376 339.766 518.718 340.817 518.054 341.3L514.507 343.884C514.211 344.1 514.087 344.482 514.2 344.831L515.559 349.027C515.813 349.809 514.917 350.458 514.253 349.974L510.713 347.395C510.416 347.179 510.013 347.178 509.716 347.394L506.136 349.987C505.471 350.468 504.578 349.819 504.831 349.038L506.195 344.831C506.308 344.482 506.184 344.1 505.887 343.884L502.34 341.3C501.676 340.817 502.018 339.766 502.84 339.766H507.243C507.611 339.766 507.937 339.529 508.05 339.179L509.402 335.009Z" fill="#EDEDE8"/>
<path d="M477.203 192.323C477.457 191.539 478.567 191.542 478.818 192.327L480.147 196.49C480.259 196.842 480.586 197.081 480.955 197.081H485.356C486.177 197.081 486.519 198.131 485.855 198.615L482.308 201.198C482.012 201.414 481.888 201.796 482.001 202.145L483.36 206.341C483.614 207.123 482.718 207.772 482.054 207.288L478.514 204.71C478.217 204.493 477.814 204.493 477.517 204.708L473.937 207.301C473.272 207.782 472.379 207.133 472.632 206.352L473.996 202.145C474.109 201.796 473.985 201.414 473.688 201.198L470.141 198.615C469.477 198.131 469.819 197.081 470.64 197.081H475.044C475.412 197.081 475.738 196.844 475.851 196.494L477.203 192.323Z" fill="#EDEDE8"/>
<path d="M360.167 117.009C360.422 116.225 361.532 116.227 361.782 117.012L363.112 121.176C363.224 121.528 363.55 121.766 363.92 121.766H368.321C369.142 121.766 369.484 122.817 368.82 123.3L365.273 125.884C364.976 126.1 364.852 126.482 364.965 126.831L366.325 131.027C366.578 131.809 365.683 132.458 365.019 131.974L361.478 129.395C361.181 129.179 360.779 129.178 360.481 129.394L356.902 131.987C356.237 132.468 355.344 131.819 355.597 131.038L356.96 126.831C357.073 126.482 356.949 126.1 356.653 125.884L353.106 123.3C352.442 122.817 352.784 121.766 353.605 121.766H358.009C358.377 121.766 358.703 121.529 358.816 121.179L360.167 117.009Z" fill="#EDEDE8"/>
</svg>
