<svg width="709" height="710" viewBox="0 0 709 710" fill="none" xmlns="http://www.w3.org/2000/svg">
<circle cx="355.5" cy="361.5" r="301.5" fill="#D9D9D9"/>
<circle cx="354.397" cy="354.795" r="216.591" transform="rotate(-10.9142 354.397 354.795)" fill="#2D2D2D"/>
<circle cx="354.446" cy="355.04" r="151.5" transform="rotate(-10.9142 354.446 355.04)" fill="#00C802" fill-opacity="0.6"/>
<line x1="128.982" y1="557.352" x2="578.885" y2="152.862" stroke="#2D2D2D" stroke-width="2"/>
<line x1="203.377" y1="616.503" x2="500.45" y2="98.11" stroke="#2D2D2D" stroke-width="2"/>
<path d="M368.874 656.453L339.054 575.711L371.051 467.346L354.777 354.504L366.23 237.177L297.88 62.608" stroke="#2D2D2D" stroke-width="2"/>
<line x1="397.121" y1="418.629" x2="308.801" y2="285.214" stroke="#2D2D2D" stroke-width="10"/>
<line x1="468.637" y1="634.363" x2="238.111" y2="75.0042" stroke="#2D2D2D" stroke-width="2"/>
<line x1="544.413" y1="589.6" x2="162.638" y2="120.267" stroke="#2D2D2D" stroke-width="2"/>
<path d="M650.437 416.034L542.421 356.094L396.84 384.166L251.745 286.81L178.861 354.1L57.7639 294.53" stroke="#2D2D2D" stroke-width="2"/>
<path d="M627.321 224.04L454.592 280.919L355.199 355.402L182.906 394.99L82.1507 486.364" stroke="#2D2D2D" stroke-width="2"/>
<ellipse cx="351.432" cy="358.545" rx="297.377" ry="302.5" transform="rotate(124.086 351.432 358.545)" stroke="#2D2D2D" stroke-width="2"/>
<path d="M46.6481 299.45C13.3361 461.938 123.946 621.123 292.612 655.702C461.278 690.28 625.602 587.46 658.914 424.971C692.226 262.482 581.616 103.297 412.95 68.7189C244.284 34.1406 79.9602 136.961 46.6481 299.45Z" stroke="#2D2D2D" stroke-width="20"/>
<line x1="419.105" y1="65.449" x2="292.875" y2="651.166" stroke="#2D2D2D" stroke-width="2"/>
<circle cx="354.303" cy="354.303" r="15" transform="rotate(-10.9142 354.303 354.303)" fill="#2D2D2D"/>
<circle cx="354.303" cy="354.304" r="15" transform="rotate(-10.9142 354.303 354.304)" fill="#2D2D2D"/>
<circle cx="354.303" cy="354.304" r="15" transform="rotate(-10.9142 354.303 354.304)" fill="#2D2D2D"/>
<circle cx="397.275" cy="418.527" r="10" transform="rotate(-33.5044 397.275 418.527)" fill="#2D2D2D"/>
<circle cx="308.931" cy="285.127" r="10" transform="rotate(-33.5044 308.931 285.127)" fill="#2D2D2D"/>
<circle cx="421.989" cy="312.427" r="10" transform="rotate(-123.504 421.989 312.427)" fill="#2D2D2D"/>
<line x1="426.599" y1="309.17" x2="293.184" y2="397.49" stroke="#2D2D2D" stroke-width="10"/>
<circle cx="288.575" cy="400.745" r="10" transform="rotate(-123.504 288.575 400.745)" fill="#2D2D2D"/>
<circle cx="394.833" cy="101.113" r="24" transform="rotate(-10.9142 394.833 101.113)" fill="#FF5A00"/>
<path d="M396.049 110.288C394.557 110.576 393.274 110.432 392.202 109.857C391.126 109.266 390.41 108.337 390.051 107.07L392.573 106.583C392.772 107.197 393.133 107.632 393.656 107.89C394.178 108.148 394.84 108.199 395.641 108.045C396.536 107.872 397.167 107.506 397.531 106.947C397.909 106.369 398.014 105.648 397.847 104.784L397.525 103.111C397.355 102.231 396.997 101.599 396.451 101.216C395.901 100.817 395.179 100.704 394.283 100.876C393.718 100.985 393.256 101.213 392.899 101.559C392.539 101.889 392.309 102.3 392.208 102.792L389.687 103.278L387.973 93.7582L397.352 91.9496L397.798 94.2591L390.846 95.5996L391.83 100.958L392.49 100.831L391.925 101.575C391.782 100.837 391.961 100.2 392.461 99.6634C392.96 99.1271 393.697 98.7651 394.671 98.5773C396.069 98.3076 397.236 98.5306 398.173 99.2463C399.122 99.9432 399.746 101.069 400.046 102.625L400.369 104.298C400.663 105.822 400.433 107.121 399.678 108.195C398.924 109.269 397.714 109.967 396.049 110.288Z" fill="white"/>
<circle cx="441.965" cy="141.772" r="24" transform="rotate(-10.9142 441.965 141.772)" fill="#282828"/>
<path d="M444.21 150.749C443.11 150.961 442.123 150.956 441.249 150.733C440.375 150.51 439.651 150.096 439.078 149.49C438.502 148.867 438.125 148.093 437.946 147.166C437.746 146.129 437.858 145.187 438.281 144.339C438.704 143.492 439.452 142.68 440.524 141.903L442.776 140.271C443.347 139.851 443.758 139.364 444.01 138.811C444.258 138.241 444.325 137.658 444.21 137.061C444.074 136.354 443.738 135.84 443.204 135.52C442.669 135.199 442.01 135.115 441.224 135.266C440.438 135.417 439.851 135.751 439.461 136.266C439.085 136.762 438.964 137.364 439.101 138.071C439.213 138.652 439.49 139.161 439.933 139.597C440.372 140.017 440.918 140.311 441.569 140.479L444.262 141.133C445.615 141.475 446.639 141.97 447.335 142.618C448.043 143.247 448.495 144.073 448.692 145.094C448.965 146.508 448.694 147.725 447.881 148.745C447.083 149.763 445.859 150.431 444.21 150.749ZM443.782 148.534C444.662 148.364 445.317 148.001 445.748 147.446C446.176 146.874 446.317 146.212 446.171 145.458C446.053 144.845 445.771 144.313 445.326 143.861C444.877 143.393 444.317 143.069 443.647 142.889L440.87 142.178C439.602 141.852 438.616 141.39 437.915 140.793C437.213 140.195 436.766 139.401 436.575 138.411C436.409 137.547 436.466 136.746 436.747 136.007C437.044 135.265 437.535 134.641 438.219 134.134C438.901 133.612 439.76 133.251 440.797 133.051C441.834 132.851 442.766 132.867 443.592 133.098C444.416 133.314 445.096 133.713 445.632 134.294C446.167 134.875 446.519 135.598 446.685 136.462C446.879 137.467 446.76 138.37 446.328 139.17C445.911 139.968 445.17 140.77 444.103 141.579L441.766 143.276C441.224 143.674 440.83 144.166 440.584 144.751C440.354 145.333 440.297 145.922 440.412 146.519C440.56 147.289 440.939 147.86 441.549 148.231C442.158 148.602 442.903 148.703 443.782 148.534Z" fill="white"/>
<circle cx="529.427" cy="161.378" r="24" transform="rotate(-10.9142 529.427 161.378)" fill="#FF5A00"/>
<path d="M527.392 169.918L530.699 153.858L524.69 155.016L525.176 157.538L522.655 158.024L521.719 153.17L532.771 151.038L533.244 153.489L530.126 169.391L527.392 169.918Z" fill="white"/>
<circle cx="566.536" cy="231.214" r="24" transform="rotate(-10.9142 566.536 231.214)" fill="#282828"/>
<path d="M556.462 241.304L556.025 239.042L560.597 238.16L558.143 225.435L554.207 229.738L553.675 226.981L557.056 223.347L560.261 222.729L563.142 237.669L566.842 236.956L567.278 239.218L556.462 241.304ZM575.68 237.843C574.549 238.061 573.514 238.016 572.575 237.708C571.636 237.4 570.848 236.868 570.214 236.11C569.576 235.337 569.149 234.393 568.934 233.277C568.77 232.429 568.733 231.556 568.82 230.66C568.921 229.744 569.139 228.846 569.474 227.967L572.365 220.395L575.193 219.849L571.724 228.731L571.855 228.779C572.081 228.263 572.431 227.837 572.904 227.501C573.39 227.147 573.955 226.908 574.599 226.783C575.526 226.605 576.377 226.669 577.153 226.975C577.929 227.282 578.583 227.799 579.115 228.528C579.643 229.241 580.012 230.139 580.221 231.223C580.433 232.323 580.384 233.335 580.073 234.258C579.762 235.182 579.236 235.959 578.494 236.591C577.75 237.207 576.812 237.625 575.68 237.843ZM575.234 235.656C576.177 235.474 576.872 235.022 577.319 234.3C577.767 233.578 577.894 232.715 577.7 231.709C577.506 230.704 577.067 229.949 576.383 229.446C575.7 228.942 574.886 228.781 573.944 228.963C573.001 229.145 572.306 229.596 571.859 230.318C571.411 231.04 571.284 231.904 571.478 232.909C571.672 233.914 572.111 234.669 572.795 235.173C573.478 235.676 574.292 235.837 575.234 235.656Z" fill="white"/>
<circle cx="616.422" cy="295.619" r="24" transform="rotate(-10.9142 616.422 295.619)" fill="#FF5A00"/>
<path d="M606.347 305.709L605.911 303.447L610.483 302.566L608.029 289.84L604.093 294.143L603.561 291.386L606.942 287.752L610.147 287.134L613.028 302.075L616.728 301.361L617.164 303.624L606.347 305.709ZM625.33 302.293C624.246 302.502 623.264 302.48 622.384 302.226C621.504 301.972 620.773 301.518 620.191 300.865C619.621 300.192 619.241 299.361 619.05 298.371L621.595 297.881C621.762 298.745 622.136 299.373 622.717 299.767C623.313 300.157 624.052 300.267 624.931 300.097C625.827 299.924 626.47 299.54 626.86 298.943C627.25 298.347 627.365 297.632 627.204 296.799L626.959 295.527C626.789 294.647 626.415 294.018 625.837 293.641C625.256 293.248 624.518 293.138 623.623 293.31L621.785 293.665L621.321 291.261L624.591 286.671L617.804 287.979L617.372 285.741L626.752 283.932L627.215 286.336L623.337 291.703L623.219 291.09C624.853 290.775 626.236 290.973 627.367 291.684C628.498 292.395 629.208 293.504 629.499 295.012L629.749 296.308C629.94 297.298 629.888 298.213 629.594 299.051C629.296 299.875 628.778 300.569 628.04 301.135C627.318 301.698 626.415 302.084 625.33 302.293Z" fill="white"/>
<circle cx="622.179" cy="393.024" r="24" transform="rotate(-10.9142 622.179 393.024)" fill="#282828"/>
<path d="M618.141 401.95L617.655 399.429L621.922 392.911C622.576 391.905 623.026 391.028 623.272 390.279C623.532 389.512 623.597 388.791 623.466 388.116C623.297 387.236 622.92 386.592 622.336 386.183C621.768 385.771 621.067 385.645 620.234 385.806C619.323 385.981 618.652 386.388 618.221 387.025C617.802 387.643 617.681 388.408 617.857 389.319L615.312 389.81C615.137 388.736 615.203 387.77 615.51 386.912C615.815 386.039 616.334 385.311 617.069 384.73C617.805 384.148 618.722 383.751 619.822 383.539C620.874 383.336 621.833 383.363 622.697 383.62C623.561 383.877 624.277 384.334 624.843 384.99C625.41 385.647 625.79 386.478 625.984 387.483C626.181 388.505 626.106 389.554 625.76 390.631C625.429 391.705 624.782 392.954 623.818 394.378L620.689 399.063L628.206 397.614L628.652 399.923L618.141 401.95Z" fill="white"/>
<circle cx="526.167" cy="570.814" r="24" transform="rotate(-10.9142 526.167 570.814)" fill="#FF5A00"/>
<path d="M527.029 579.04C525.945 579.249 524.963 579.226 524.083 578.972C523.203 578.718 522.471 578.265 521.889 577.611C521.32 576.939 520.939 576.108 520.749 575.118L523.294 574.627C523.46 575.491 523.834 576.12 524.415 576.513C525.012 576.903 525.75 577.013 526.63 576.843C527.525 576.671 528.168 576.286 528.558 575.69C528.948 575.093 529.063 574.378 528.902 573.546L528.657 572.273C528.487 571.393 528.113 570.765 527.536 570.387C526.955 569.994 526.216 569.884 525.321 570.057L523.483 570.411L523.019 568.007L526.289 563.417L519.502 564.726L519.071 562.487L528.45 560.678L528.913 563.082L525.035 568.449L524.917 567.837C526.551 567.522 527.934 567.72 529.065 568.43C530.196 569.141 530.907 570.25 531.197 571.759L531.447 573.055C531.638 574.045 531.586 574.959 531.292 575.798C530.994 576.621 530.477 577.316 529.738 577.882C529.016 578.445 528.113 578.831 527.029 579.04Z" fill="white"/>
<circle cx="399.848" cy="603.703" r="24" transform="rotate(-10.9142 399.848 603.703)" fill="#282828"/>
<path d="M389.774 613.793L389.338 611.531L393.91 610.649L391.456 597.924L387.519 602.227L386.988 599.47L390.369 595.836L393.574 595.218L396.455 610.159L400.155 609.445L400.591 611.708L389.774 613.793ZM403.857 611.078L403.371 608.556L407.638 602.038C408.291 601.032 408.742 600.155 408.988 599.407C409.248 598.64 409.312 597.919 409.182 597.243C409.012 596.364 408.636 595.719 408.052 595.31C407.483 594.899 406.783 594.773 405.95 594.933C405.039 595.109 404.368 595.516 403.937 596.153C403.518 596.771 403.397 597.536 403.573 598.447L401.028 598.938C400.853 597.864 400.919 596.898 401.226 596.04C401.531 595.166 402.05 594.439 402.785 593.857C403.52 593.276 404.438 592.879 405.538 592.667C406.59 592.464 407.549 592.491 408.413 592.748C409.277 593.005 409.993 593.461 410.559 594.118C411.126 594.775 411.506 595.606 411.7 596.611C411.897 597.632 411.822 598.681 411.476 599.759C411.145 600.833 410.498 602.082 409.534 603.506L406.405 608.191L413.922 606.742L414.368 609.051L403.857 611.078Z" fill="white"/>
<circle cx="321.113" cy="627.033" r="24" transform="rotate(-10.9142 321.113 627.033)" fill="#FF5A00"/>
<path d="M311.228 638.105L310.792 635.843L315.364 634.961L312.91 622.235L308.973 626.539L308.442 623.781L311.823 620.147L315.028 619.529L317.909 634.47L321.609 633.757L322.045 636.019L311.228 638.105ZM330.376 634.657C328.884 634.945 327.601 634.801 326.529 634.226C325.454 633.635 324.737 632.706 324.378 631.438L326.9 630.952C327.1 631.566 327.461 632.001 327.983 632.259C328.505 632.517 329.167 632.568 329.968 632.414C330.864 632.241 331.494 631.875 331.859 631.316C332.236 630.738 332.341 630.017 332.175 629.153L331.852 627.48C331.682 626.6 331.324 625.968 330.778 625.585C330.228 625.186 329.506 625.072 328.61 625.245C328.045 625.354 327.583 625.582 327.226 625.928C326.866 626.258 326.636 626.669 326.535 627.161L324.014 627.647L322.3 618.127L331.68 616.319L332.125 618.628L325.173 619.969L326.157 625.327L326.817 625.2L326.252 625.944C326.11 625.206 326.288 624.569 326.788 624.032C327.287 623.496 328.024 623.134 328.998 622.946C330.396 622.677 331.564 622.9 332.5 623.615C333.449 624.312 334.074 625.438 334.374 626.994L334.696 628.667C334.99 630.191 334.76 631.49 334.006 632.564C333.251 633.638 332.042 634.336 330.376 634.657Z" fill="white"/>
<circle cx="255.29" cy="577.59" r="24" transform="rotate(-10.9142 255.29 577.59)" fill="#282828"/>
<path d="M257.558 586.563C256.427 586.781 255.392 586.736 254.453 586.428C253.513 586.12 252.726 585.588 252.091 584.83C251.453 584.057 251.027 583.113 250.812 581.997C250.648 581.149 250.61 580.276 250.698 579.38C250.799 578.464 251.017 577.566 251.352 576.687L254.243 569.115L257.071 568.569L253.602 577.451L253.733 577.499C253.959 576.983 254.309 576.557 254.782 576.221C255.268 575.867 255.833 575.628 256.477 575.503C257.404 575.325 258.255 575.389 259.031 575.695C259.807 576.002 260.461 576.519 260.993 577.248C261.521 577.961 261.89 578.859 262.099 579.943C262.311 581.043 262.262 582.054 261.951 582.978C261.64 583.902 261.114 584.679 260.372 585.311C259.627 585.927 258.689 586.344 257.558 586.563ZM257.112 584.376C258.055 584.194 258.75 583.742 259.197 583.02C259.645 582.298 259.771 581.435 259.578 580.429C259.384 579.424 258.945 578.669 258.261 578.166C257.577 577.662 256.764 577.501 255.822 577.683C254.879 577.865 254.184 578.316 253.736 579.038C253.289 579.76 253.162 580.623 253.356 581.629C253.55 582.634 253.989 583.389 254.673 583.893C255.356 584.396 256.169 584.557 257.112 584.376Z" fill="white"/>
<circle cx="174.372" cy="560.594" r="24" transform="rotate(-10.9142 174.372 560.594)" fill="#FF5A00"/>
<path d="M173.673 569.894L177.142 561.013L177.01 560.965C176.784 561.481 176.428 561.916 175.942 562.271C175.469 562.606 174.911 562.836 174.267 562.96C173.34 563.139 172.488 563.075 171.712 562.769C170.936 562.462 170.282 561.944 169.751 561.216C169.219 560.487 168.85 559.589 168.644 558.521C168.429 557.405 168.479 556.394 168.792 555.486C169.103 554.562 169.631 553.792 170.376 553.176C171.133 552.541 172.07 552.116 173.185 551.901C174.316 551.683 175.351 551.728 176.291 552.036C177.23 552.343 178.017 552.876 178.652 553.633C179.287 554.391 179.713 555.335 179.931 556.466C180.092 557.299 180.122 558.173 180.022 559.089C179.937 560.001 179.727 560.897 179.391 561.777L176.501 569.349L173.673 569.894ZM174.922 560.781C175.864 560.599 176.559 560.147 177.007 559.426C177.454 558.704 177.581 557.84 177.387 556.835C177.193 555.829 176.755 555.075 176.071 554.571C175.387 554.067 174.574 553.906 173.631 554.088C172.689 554.27 171.994 554.722 171.546 555.444C171.099 556.165 170.972 557.029 171.166 558.034C171.36 559.04 171.798 559.794 172.482 560.298C173.166 560.802 173.979 560.963 174.922 560.781Z" fill="white"/>
<circle cx="144.465" cy="459.712" r="24" transform="rotate(-10.9142 144.465 459.712)" fill="#282828"/>
<path d="M141.646 469.421L141.209 467.159L145.781 466.278L143.327 453.552L139.391 457.855L138.859 455.098L142.24 451.464L145.445 450.846L148.326 465.787L152.026 465.073L152.462 467.336L141.646 469.421Z" fill="white"/>
<circle cx="92.9157" cy="369.303" r="24" transform="rotate(-10.9142 92.9157 369.303)" fill="#FF5A00"/>
<path d="M97.2824 376.608L96.5917 373.026L88.8856 374.512L88.1495 370.695L92.9518 359.601L95.7797 359.056L90.7185 370.835L90.8957 371.754L96.1509 370.741L95.3738 366.711L97.8954 366.225L99.8039 376.122L97.2824 376.608Z" fill="white"/>
<circle cx="120.027" cy="256.391" r="24" transform="rotate(-10.9142 120.027 256.391)" fill="#00C802"/>
<path d="M122.272 265.368C121.188 265.577 120.204 265.547 119.321 265.277C118.454 265.004 117.728 264.533 117.142 263.864C116.554 263.179 116.161 262.326 115.965 261.305L114.52 253.811C114.32 252.774 114.359 251.837 114.638 251.002C114.932 250.163 115.439 249.454 116.159 248.875C116.878 248.296 117.78 247.903 118.864 247.693C119.964 247.481 120.947 247.512 121.814 247.784C122.698 248.054 123.424 248.525 123.993 249.197C124.579 249.867 124.971 250.72 125.171 251.757L126.616 259.251C126.813 260.272 126.766 261.21 126.475 262.064C126.18 262.903 125.673 263.612 124.954 264.191C124.25 264.767 123.356 265.159 122.272 265.368ZM121.849 263.176C122.729 263.007 123.377 262.605 123.792 261.971C124.223 261.333 124.356 260.583 124.189 259.719L122.744 252.225C122.577 251.361 122.176 250.713 121.538 250.282C120.917 249.848 120.166 249.715 119.287 249.885C118.407 250.055 117.751 250.458 117.32 251.095C116.905 251.729 116.78 252.479 116.947 253.343L118.392 260.837C118.558 261.701 118.953 262.35 119.574 262.784C120.211 263.215 120.97 263.346 121.849 263.176ZM120.85 257.992C120.41 258.077 120.021 258.005 119.684 257.777C119.362 257.545 119.158 257.202 119.07 256.746C118.985 256.306 119.05 255.927 119.266 255.609C119.494 255.271 119.828 255.06 120.268 254.975C120.708 254.891 121.089 254.964 121.41 255.195C121.745 255.408 121.954 255.734 122.039 256.174C122.127 256.629 122.057 257.026 121.828 257.363C121.616 257.697 121.29 257.907 120.85 257.992Z" fill="white"/>
<circle cx="254.703" cy="113.661" r="24" transform="rotate(-10.9142 254.703 113.661)" fill="#FF5A00"/>
<path d="M243.646 123.941L243.21 121.679L247.782 120.797L245.328 108.071L241.391 112.375L240.86 109.617L244.241 105.983L247.446 105.365L250.327 120.306L254.027 119.593L254.463 121.855L243.646 123.941ZM257.776 121.216L257.34 118.954L261.912 118.072L259.458 105.347L255.522 109.65L254.99 106.893L258.371 103.259L261.576 102.641L264.457 117.581L268.157 116.868L268.593 119.13L257.776 121.216Z" fill="white"/>
<circle cx="325.99" cy="105.158" r="24" transform="rotate(-10.9142 325.99 105.158)" fill="#282828"/>
<path d="M315.123 116.419L314.686 114.157L319.258 113.275L316.804 100.55L312.868 104.853L312.336 102.096L315.717 98.4619L318.922 97.8439L321.803 112.785L325.503 112.071L325.939 114.334L315.123 116.419ZM334.318 112.962C333.234 113.171 332.25 113.141 331.367 112.871C330.5 112.599 329.774 112.128 329.188 111.458C328.6 110.773 328.207 109.92 328.011 108.899L326.566 101.405C326.366 100.368 326.405 99.4319 326.684 98.596C326.978 97.7571 327.485 97.0483 328.205 96.4696C328.924 95.8909 329.826 95.497 330.91 95.288C332.01 95.0759 332.993 95.1063 333.86 95.379C334.743 95.6487 335.47 96.1197 336.039 96.792C336.625 97.4613 337.017 98.3143 337.217 99.3512L338.662 106.845C338.859 107.866 338.812 108.804 338.521 109.659C338.226 110.498 337.719 111.207 337 111.785C336.296 112.361 335.402 112.753 334.318 112.962ZM333.895 110.771C334.775 110.601 335.423 110.199 335.838 109.565C336.269 108.928 336.402 108.177 336.235 107.313L334.79 99.8193C334.623 98.9552 334.221 98.3076 333.584 97.8764C332.963 97.4422 332.212 97.31 331.332 97.4796C330.453 97.6493 329.797 98.0527 329.366 98.6898C328.951 99.324 328.826 100.073 328.993 100.937L330.438 108.431C330.604 109.295 330.998 109.944 331.62 110.379C332.257 110.81 333.016 110.94 333.895 110.771ZM332.896 105.586C332.456 105.671 332.067 105.599 331.73 105.371C331.408 105.14 331.203 104.796 331.116 104.341C331.031 103.901 331.096 103.522 331.312 103.203C331.54 102.866 331.874 102.655 332.314 102.57C332.754 102.485 333.135 102.558 333.456 102.79C333.791 103.002 334 103.328 334.085 103.768C334.173 104.224 334.103 104.62 333.874 104.958C333.662 105.292 333.336 105.501 332.896 105.586Z" fill="white"/>
<path d="M220.357 221.256C220.458 220.438 221.548 220.23 221.943 220.954L224.036 224.79C224.213 225.114 224.579 225.287 224.942 225.217L229.263 224.384C230.069 224.228 230.604 225.195 230.044 225.795L227.05 229.004C226.8 229.272 226.75 229.671 226.927 229.992L229.057 233.854C229.454 234.574 228.697 235.381 227.953 235.032L223.989 233.17C223.656 233.014 223.261 233.09 223.01 233.357L219.986 236.581C219.424 237.18 218.424 236.711 218.525 235.897L219.067 231.508C219.112 231.144 218.918 230.792 218.586 230.636L214.614 228.771C213.871 228.421 214.007 227.325 214.814 227.17L219.138 226.336C219.499 226.266 219.774 225.972 219.819 225.607L220.357 221.256Z" fill="#EDEDE8"/>
<path d="M171.815 349.783C171.916 348.965 173.006 348.758 173.401 349.481L175.494 353.318C175.671 353.642 176.037 353.814 176.4 353.744L180.721 352.911C181.527 352.755 182.062 353.722 181.502 354.323L178.508 357.531C178.258 357.799 178.208 358.198 178.385 358.519L180.515 362.382C180.912 363.102 180.155 363.909 179.411 363.559L175.447 361.697C175.114 361.541 174.719 361.617 174.468 361.885L171.444 365.109C170.882 365.707 169.882 365.239 169.983 364.424L170.525 360.035C170.57 359.671 170.376 359.319 170.044 359.163L166.072 357.298C165.329 356.949 165.465 355.853 166.272 355.697L170.596 354.863C170.957 354.794 171.232 354.499 171.277 354.134L171.815 349.783Z" fill="#EDEDE8"/>
<path d="M221.992 474.933C222.093 474.115 223.184 473.907 223.579 474.631L225.672 478.467C225.849 478.791 226.215 478.964 226.577 478.894L230.899 478.06C231.705 477.905 232.24 478.872 231.679 479.472L228.686 482.68C228.436 482.949 228.386 483.347 228.563 483.669L230.693 487.531C231.089 488.251 230.333 489.058 229.589 488.709L225.625 486.847C225.292 486.691 224.897 486.766 224.646 487.034L221.621 490.258C221.06 490.857 220.06 490.388 220.161 489.574L220.703 485.184C220.748 484.82 220.554 484.469 220.222 484.313L216.25 482.447C215.506 482.098 215.643 481.002 216.45 480.847L220.774 480.013C221.135 479.943 221.41 479.649 221.455 479.284L221.992 474.933Z" fill="#EDEDE8"/>
<path d="M352.441 530.859C352.542 530.041 353.632 529.833 354.027 530.556L356.12 534.393C356.297 534.717 356.663 534.889 357.026 534.819L361.347 533.986C362.153 533.831 362.688 534.797 362.128 535.398L359.134 538.606C358.884 538.874 358.834 539.273 359.011 539.594L361.141 543.457C361.538 544.177 360.781 544.984 360.037 544.634L356.073 542.773C355.74 542.616 355.345 542.692 355.094 542.96L352.07 546.184C351.508 546.782 350.508 546.314 350.609 545.499L351.151 541.11C351.196 540.746 351.002 540.394 350.67 540.238L346.698 538.373C345.955 538.024 346.091 536.928 346.898 536.772L351.222 535.939C351.583 535.869 351.858 535.575 351.903 535.21L352.441 530.859Z" fill="#EDEDE8"/>
<path d="M483.208 477.116C483.309 476.297 484.4 476.09 484.795 476.813L486.888 480.65C487.065 480.974 487.431 481.146 487.793 481.076L492.114 480.243C492.921 480.087 493.456 481.054 492.895 481.655L489.902 484.863C489.651 485.131 489.602 485.53 489.779 485.851L491.908 489.714C492.305 490.434 491.549 491.241 490.805 490.891L486.841 489.029C486.508 488.873 486.113 488.949 485.861 489.217L482.837 492.441C482.276 493.039 481.276 492.571 481.377 491.756L481.919 487.367C481.964 487.003 481.77 486.651 481.437 486.495L477.465 484.63C476.722 484.281 476.859 483.185 477.665 483.029L481.99 482.195C482.351 482.126 482.626 481.831 482.671 481.466L483.208 477.116Z" fill="#EDEDE8"/>
<path d="M539.768 350.121C539.869 349.303 540.959 349.095 541.354 349.819L543.447 353.655C543.624 353.979 543.99 354.152 544.353 354.082L548.674 353.249C549.48 353.093 550.015 354.06 549.455 354.66L546.461 357.869C546.211 358.137 546.161 358.536 546.339 358.857L548.468 362.72C548.865 363.439 548.109 364.246 547.365 363.897L543.4 362.035C543.068 361.879 542.672 361.955 542.421 362.223L539.397 365.446C538.835 366.045 537.836 365.577 537.936 364.762L538.478 360.373C538.523 360.009 538.329 359.657 537.997 359.501L534.025 357.636C533.282 357.287 533.419 356.191 534.225 356.035L538.549 355.201C538.91 355.132 539.185 354.837 539.23 354.472L539.768 350.121Z" fill="#EDEDE8"/>
<path d="M481.135 216.114C481.236 215.295 482.327 215.088 482.721 215.811L484.815 219.648C484.991 219.972 485.357 220.144 485.72 220.074L490.041 219.241C490.848 219.086 491.382 220.052 490.822 220.653L487.828 223.861C487.578 224.129 487.529 224.528 487.706 224.849L489.835 228.712C490.232 229.432 489.476 230.239 488.732 229.889L484.767 228.027C484.435 227.871 484.039 227.947 483.788 228.215L480.764 231.439C480.202 232.037 479.203 231.569 479.303 230.754L479.845 226.365C479.89 226.001 479.696 225.649 479.364 225.493L475.392 223.628C474.649 223.279 474.786 222.183 475.592 222.027L479.916 221.193C480.277 221.124 480.552 220.829 480.598 220.464L481.135 216.114Z" fill="#EDEDE8"/>
<path d="M351.957 164.321C352.058 163.503 353.149 163.295 353.544 164.018L355.637 167.855C355.814 168.179 356.18 168.351 356.542 168.281L360.864 167.448C361.67 167.293 362.205 168.259 361.644 168.86L358.651 172.068C358.4 172.336 358.351 172.735 358.528 173.056L360.657 176.919C361.054 177.639 360.298 178.446 359.554 178.096L355.59 176.234C355.257 176.078 354.862 176.154 354.61 176.422L351.586 179.646C351.025 180.244 350.025 179.776 350.126 178.961L350.668 174.572C350.713 174.208 350.519 173.856 350.186 173.7L346.214 171.835C345.471 171.486 345.608 170.39 346.414 170.234L350.739 169.4C351.1 169.331 351.375 169.036 351.42 168.671L351.957 164.321Z" fill="#EDEDE8"/>
</svg>
