<svg width="647" height="647" viewBox="0 0 647 647" fill="none" xmlns="http://www.w3.org/2000/svg">
<circle cx="323.5" cy="323.5" r="302.5" fill="#EDEDE8" stroke="#DA993A" stroke-width="2"/>
<circle cx="323.499" cy="324" r="216.591" fill="#CCA05F"/>
<circle cx="323.5" cy="324.25" r="151.5" fill="#134524"/>
<circle cx="323.5" cy="323.5" r="302.5" transform="rotate(-22.5 323.5 323.5)" stroke="#DA993A" stroke-width="2"/>
<line x1="43.6439" y1="439.914" x2="602.591" y2="208.39" stroke="#DA993A" stroke-width="2"/>
<circle cx="323.5" cy="323.5" r="302.5" transform="rotate(-45 323.5 323.5)" stroke="#DA993A" stroke-width="2"/>
<line x1="109.419" y1="537.192" x2="537.219" y2="109.393" stroke="#DA993A" stroke-width="2"/>
<circle cx="323.498" cy="323.498" r="302.5" transform="rotate(-90 323.498 323.498)" stroke="#DA993A" stroke-width="2"/>
<line x1="322.497" y1="625.998" x2="322.497" y2="20.9982" stroke="#DA993A" stroke-width="2"/>
<line x1="322.456" y1="398.326" x2="322.456" y2="238.326" stroke="#CCA05F" stroke-width="10"/>
<circle cx="323.497" cy="323.499" r="302.5" transform="rotate(-112.5 323.497 323.499)" stroke="#DA993A" stroke-width="2"/>
<line x1="438.335" y1="603.355" x2="206.811" y2="44.4083" stroke="#DA993A" stroke-width="2"/>
<circle cx="323.498" cy="323.498" r="302.5" transform="rotate(-135 323.498 323.498)" stroke="#DA993A" stroke-width="2"/>
<line x1="536.69" y1="538.105" x2="108.89" y2="110.306" stroke="#DA993A" stroke-width="2"/>
<circle cx="323.499" cy="323.499" r="302.5" transform="rotate(-157.5 323.499 323.499)" stroke="#DA993A" stroke-width="2"/>
<line x1="602.589" y1="440.184" x2="43.6417" y2="208.66" stroke="#DA993A" stroke-width="2"/>
<circle cx="323.499" cy="323.499" r="302.5" transform="rotate(-180 323.499 323.499)" stroke="#DA993A" stroke-width="2"/>
<line x1="625.998" y1="324.497" x2="20.9983" y2="324.497" stroke="#DA993A" stroke-width="2"/>
<circle cx="323.499" cy="323.499" r="302.5" transform="rotate(157.5 323.499 323.499)" stroke="#DA993A" stroke-width="2"/>
<circle cx="323.498" cy="323.499" r="302.5" transform="rotate(135 323.498 323.499)" stroke="#DA993A" stroke-width="2"/>
<circle cx="323.495" cy="323.499" r="302.5" transform="rotate(112.5 323.495 323.499)" stroke="#DA993A" stroke-width="2"/>
<circle cx="323.494" cy="323.5" r="312.5" transform="rotate(112.5 323.494 323.5)" stroke="#DA993A" stroke-width="20"/>
<line x1="438.5" y1="44.4056" x2="206.976" y2="603.353" stroke="#DA993A" stroke-width="2"/>
<circle cx="323.499" cy="323.499" r="15" fill="#CCA05F"/>
<circle cx="323.499" cy="323.499" r="15" fill="#CCA05F"/>
<circle cx="323.499" cy="323.499" r="15" fill="#CCA05F"/>
<circle cx="322.64" cy="398.326" r="10" fill="#CCA05F"/>
<circle cx="322.613" cy="238.326" r="10" fill="#CCA05F"/>
<circle cx="401.816" cy="323.496" r="10" transform="rotate(-90 401.816 323.496)" fill="#CCA05F"/>
<line x1="407.456" y1="323.326" x2="247.456" y2="323.326" stroke="#CCA05F" stroke-width="10"/>
<circle cx="241.816" cy="323.496" r="10" transform="rotate(-90 241.816 323.496)" fill="#CCA05F"/>
<circle cx="374" cy="70" r="24" fill="#E74040"/>
<path d="M373.457 79.24C371.937 79.24 370.705 78.856 369.761 78.088C368.817 77.304 368.289 76.256 368.177 74.944H370.745C370.825 75.584 371.097 76.08 371.561 76.432C372.025 76.784 372.665 76.96 373.481 76.96C374.393 76.96 375.081 76.72 375.545 76.24C376.025 75.744 376.265 75.056 376.265 74.176V72.472C376.265 71.576 376.033 70.888 375.569 70.408C375.105 69.912 374.417 69.664 373.505 69.664C372.929 69.664 372.433 69.8 372.017 70.072C371.601 70.328 371.297 70.688 371.105 71.152H368.537L368.657 61.48H378.209V63.832H371.129L371.081 69.28H371.753L371.057 69.904C371.057 69.152 371.353 68.56 371.945 68.128C372.537 67.696 373.329 67.48 374.321 67.48C375.745 67.48 376.849 67.92 377.633 68.8C378.433 69.664 378.833 70.888 378.833 72.472V74.176C378.833 75.728 378.361 76.96 377.417 77.872C376.473 78.784 375.153 79.24 373.457 79.24Z" fill="white"/>
<circle cx="464" cy="110" r="24" fill="#3C3C3C"/>
<path d="M464.505 119.24C463.385 119.24 462.417 119.048 461.601 118.664C460.785 118.28 460.153 117.736 459.705 117.032C459.257 116.312 459.033 115.48 459.033 114.536C459.033 113.48 459.321 112.576 459.897 111.824C460.473 111.072 461.361 110.416 462.561 109.856L465.081 108.68C465.721 108.376 466.217 107.976 466.569 107.48C466.921 106.968 467.097 106.408 467.097 105.8C467.097 105.08 466.865 104.512 466.401 104.096C465.937 103.68 465.305 103.472 464.505 103.472C463.705 103.472 463.065 103.688 462.585 104.12C462.121 104.536 461.889 105.104 461.889 105.824C461.889 106.416 462.065 106.968 462.417 107.48C462.769 107.976 463.249 108.368 463.857 108.656L466.377 109.808C467.641 110.4 468.553 111.08 469.113 111.848C469.689 112.6 469.977 113.496 469.977 114.536C469.977 115.976 469.481 117.12 468.489 117.968C467.513 118.816 466.185 119.24 464.505 119.24ZM464.505 116.984C465.401 116.984 466.113 116.752 466.641 116.288C467.169 115.808 467.433 115.184 467.433 114.416C467.433 113.792 467.257 113.216 466.905 112.688C466.553 112.144 466.065 111.72 465.441 111.416L462.849 110.192C461.665 109.632 460.785 108.992 460.209 108.272C459.633 107.552 459.345 106.688 459.345 105.68C459.345 104.8 459.553 104.024 459.969 103.352C460.401 102.68 461.001 102.16 461.769 101.792C462.537 101.408 463.449 101.216 464.505 101.216C465.561 101.216 466.473 101.408 467.241 101.792C468.009 102.16 468.601 102.68 469.017 103.352C469.433 104.024 469.641 104.8 469.641 105.68C469.641 106.704 469.353 107.568 468.777 108.272C468.217 108.976 467.337 109.624 466.137 110.216L463.521 111.44C462.913 111.728 462.433 112.136 462.081 112.664C461.745 113.192 461.577 113.76 461.577 114.368C461.577 115.152 461.841 115.784 462.369 116.264C462.897 116.744 463.609 116.984 464.505 116.984Z" fill="white"/>
<circle cx="536" cy="184" r="24" fill="#E74040"/>
<path d="M532.385 192L538.673 176.856H532.553V179.424H529.985V174.48H541.241V176.976L535.169 192H532.385Z" fill="white"/>
<circle cx="577" cy="278" r="24" fill="#3C3C3C"/>
<path d="M565.197 286V283.696H569.853V270.736L565.173 274.216V271.408L569.181 268.48H572.445V283.696H576.213V286H565.197ZM584.724 286.24C583.572 286.24 582.564 286 581.7 285.52C580.836 285.04 580.164 284.368 579.684 283.504C579.204 282.624 578.964 281.616 578.964 280.48C578.964 279.616 579.092 278.752 579.348 277.888C579.62 277.008 580.004 276.168 580.5 275.368L584.772 268.48H587.652L582.564 276.544L582.684 276.616C583.004 276.152 583.428 275.8 583.956 275.56C584.5 275.304 585.1 275.176 585.756 275.176C586.7 275.176 587.524 275.4 588.228 275.848C588.932 276.296 589.476 276.928 589.86 277.744C590.244 278.544 590.436 279.496 590.436 280.6C590.436 281.72 590.196 282.704 589.716 283.552C589.236 284.4 588.572 285.064 587.724 285.544C586.876 286.008 585.876 286.24 584.724 286.24ZM584.7 284.008C585.66 284.008 586.428 283.696 587.004 283.072C587.58 282.448 587.868 281.624 587.868 280.6C587.868 279.576 587.58 278.752 587.004 278.128C586.428 277.504 585.66 277.192 584.7 277.192C583.74 277.192 582.972 277.504 582.396 278.128C581.82 278.752 581.532 279.576 581.532 280.6C581.532 281.624 581.82 282.448 582.396 283.072C582.972 283.696 583.74 284.008 584.7 284.008Z" fill="white"/>
<circle cx="577" cy="376" r="24" fill="#E74040"/>
<path d="M565.197 384V381.696H569.853V368.736L565.173 372.216V369.408L569.181 366.48H572.445V381.696H576.213V384H565.197ZM584.484 384.24C583.38 384.24 582.42 384.032 581.604 383.616C580.788 383.2 580.156 382.616 579.708 381.864C579.276 381.096 579.06 380.208 579.06 379.2H581.652C581.652 380.08 581.9 380.768 582.396 381.264C582.908 381.76 583.612 382.008 584.508 382.008C585.42 382.008 586.124 381.752 586.62 381.24C587.116 380.728 587.364 380.048 587.364 379.2V377.904C587.364 377.008 587.116 376.32 586.62 375.84C586.124 375.344 585.42 375.096 584.508 375.096H582.636V372.648L586.716 368.76H579.804V366.48H589.356V368.928L584.532 373.464V372.84C586.196 372.84 587.516 373.296 588.492 374.208C589.468 375.12 589.956 376.344 589.956 377.88V379.2C589.956 380.208 589.732 381.096 589.284 381.864C588.836 382.616 588.196 383.2 587.364 383.616C586.548 384.032 585.588 384.24 584.484 384.24Z" fill="white"/>
<circle cx="536" cy="470" r="24" fill="#3C3C3C"/>
<path d="M530.345 478V475.432L535.769 469.84C536.601 468.976 537.209 468.2 537.593 467.512C537.993 466.808 538.193 466.112 538.193 465.424C538.193 464.528 537.945 463.824 537.449 463.312C536.969 462.8 536.305 462.544 535.457 462.544C534.529 462.544 533.793 462.816 533.249 463.36C532.721 463.888 532.457 464.616 532.457 465.544H529.865C529.897 464.456 530.145 463.52 530.609 462.736C531.073 461.936 531.721 461.32 532.553 460.888C533.385 460.456 534.361 460.24 535.481 460.24C536.553 460.24 537.489 460.448 538.289 460.864C539.089 461.28 539.705 461.864 540.137 462.616C540.569 463.368 540.785 464.256 540.785 465.28C540.785 466.32 540.513 467.336 539.969 468.328C539.441 469.32 538.569 470.424 537.353 471.64L533.393 475.648H541.049V478H530.345Z" fill="white"/>
<circle cx="464" cy="541" r="24" fill="#E74040"/>
<path d="M463.289 549.24C462.185 549.24 461.225 549.032 460.409 548.616C459.593 548.2 458.961 547.616 458.513 546.864C458.081 546.096 457.865 545.208 457.865 544.2H460.457C460.457 545.08 460.705 545.768 461.201 546.264C461.713 546.76 462.417 547.008 463.313 547.008C464.225 547.008 464.929 546.752 465.425 546.24C465.921 545.728 466.169 545.048 466.169 544.2V542.904C466.169 542.008 465.921 541.32 465.425 540.84C464.929 540.344 464.225 540.096 463.313 540.096H461.441V537.648L465.521 533.76H458.609V531.48H468.161V533.928L463.337 538.464V537.84C465.001 537.84 466.321 538.296 467.297 539.208C468.273 540.12 468.761 541.344 468.761 542.88V544.2C468.761 545.208 468.537 546.096 468.089 546.864C467.641 547.616 467.001 548.2 466.169 548.616C465.353 549.032 464.393 549.24 463.289 549.24Z" fill="white"/>
<circle cx="372" cy="578" r="24" fill="#3C3C3C"/>
<path d="M360.197 586V583.696H364.853V570.736L360.173 574.216V571.408L364.181 568.48H367.445V583.696H371.213V586H360.197ZM374.54 586V583.432L379.964 577.84C380.796 576.976 381.404 576.2 381.788 575.512C382.188 574.808 382.388 574.112 382.388 573.424C382.388 572.528 382.14 571.824 381.644 571.312C381.164 570.8 380.5 570.544 379.652 570.544C378.724 570.544 377.988 570.816 377.444 571.36C376.916 571.888 376.652 572.616 376.652 573.544H374.06C374.092 572.456 374.34 571.52 374.804 570.736C375.268 569.936 375.916 569.32 376.748 568.888C377.58 568.456 378.556 568.24 379.676 568.24C380.748 568.24 381.684 568.448 382.484 568.864C383.284 569.28 383.9 569.864 384.332 570.616C384.764 571.368 384.98 572.256 384.98 573.28C384.98 574.32 384.708 575.336 384.164 576.328C383.636 577.32 382.764 578.424 381.548 579.64L377.588 583.648H385.244V586H374.54Z" fill="white"/>
<circle cx="273" cy="578" r="24" fill="#E74040"/>
<path d="M261.197 587V584.696H265.853V571.736L261.173 575.216V572.408L265.181 569.48H268.445V584.696H272.213V587H261.197ZM280.652 587.24C279.132 587.24 277.9 586.856 276.956 586.088C276.012 585.304 275.484 584.256 275.372 582.944H277.94C278.02 583.584 278.292 584.08 278.756 584.432C279.22 584.784 279.86 584.96 280.676 584.96C281.588 584.96 282.276 584.72 282.74 584.24C283.22 583.744 283.46 583.056 283.46 582.176V580.472C283.46 579.576 283.228 578.888 282.764 578.408C282.3 577.912 281.612 577.664 280.7 577.664C280.124 577.664 279.628 577.8 279.212 578.072C278.796 578.328 278.492 578.688 278.3 579.152H275.732L275.852 569.48H285.404V571.832H278.324L278.276 577.28H278.948L278.252 577.904C278.252 577.152 278.548 576.56 279.14 576.128C279.732 575.696 280.524 575.48 281.516 575.48C282.94 575.48 284.044 575.92 284.828 576.8C285.628 577.664 286.028 578.888 286.028 580.472V582.176C286.028 583.728 285.556 584.96 284.612 585.872C283.668 586.784 282.348 587.24 280.652 587.24Z" fill="white"/>
<circle cx="184" cy="535" r="24" fill="#3C3C3C"/>
<path d="M184.529 544.24C183.377 544.24 182.369 544 181.505 543.52C180.641 543.04 179.969 542.368 179.489 541.504C179.009 540.624 178.769 539.616 178.769 538.48C178.769 537.616 178.897 536.752 179.153 535.888C179.425 535.008 179.809 534.168 180.305 533.368L184.577 526.48H187.457L182.369 534.544L182.489 534.616C182.809 534.152 183.233 533.8 183.761 533.56C184.305 533.304 184.905 533.176 185.561 533.176C186.505 533.176 187.329 533.4 188.033 533.848C188.737 534.296 189.281 534.928 189.665 535.744C190.049 536.544 190.241 537.496 190.241 538.6C190.241 539.72 190.001 540.704 189.521 541.552C189.041 542.4 188.377 543.064 187.529 543.544C186.681 544.008 185.681 544.24 184.529 544.24ZM184.505 542.008C185.465 542.008 186.233 541.696 186.809 541.072C187.385 540.448 187.673 539.624 187.673 538.6C187.673 537.576 187.385 536.752 186.809 536.128C186.233 535.504 185.465 535.192 184.505 535.192C183.545 535.192 182.777 535.504 182.201 536.128C181.625 536.752 181.337 537.576 181.337 538.6C181.337 539.624 181.625 540.448 182.201 541.072C182.777 541.696 183.545 542.008 184.505 542.008Z" fill="white"/>
<circle cx="115" cy="465" r="24" fill="#E74040"/>
<path d="M112.553 474L117.641 465.936L117.521 465.864C117.201 466.328 116.769 466.688 116.225 466.944C115.697 467.184 115.105 467.304 114.449 467.304C113.505 467.304 112.681 467.08 111.977 466.632C111.273 466.184 110.729 465.552 110.345 464.736C109.961 463.92 109.769 462.968 109.769 461.88C109.769 460.744 110.009 459.76 110.489 458.928C110.969 458.08 111.633 457.424 112.481 456.96C113.345 456.48 114.345 456.24 115.481 456.24C116.633 456.24 117.641 456.48 118.505 456.96C119.369 457.44 120.041 458.112 120.521 458.976C121.001 459.84 121.241 460.848 121.241 462C121.241 462.848 121.105 463.712 120.833 464.592C120.577 465.472 120.201 466.312 119.705 467.112L115.433 474H112.553ZM115.505 465.288C116.465 465.288 117.233 464.976 117.809 464.352C118.385 463.728 118.673 462.904 118.673 461.88C118.673 460.856 118.385 460.032 117.809 459.408C117.233 458.784 116.465 458.472 115.505 458.472C114.545 458.472 113.777 458.784 113.201 459.408C112.625 460.032 112.337 460.856 112.337 461.88C112.337 462.904 112.625 463.728 113.201 464.352C113.777 464.976 114.545 465.288 115.505 465.288Z" fill="white"/>
<circle cx="73" cy="372" r="24" fill="#3C3C3C"/>
<path d="M68.3927 381V378.696H73.0487V365.736L68.3687 369.216V366.408L72.3767 363.48H75.6407V378.696H79.4087V381H68.3927Z" fill="white"/>
<circle cx="73" cy="274" r="24" fill="#E74040"/>
<path d="M75.9047 282V278.352H68.0567V274.464L74.8727 264.48H77.7527L70.5527 275.088V276.024H75.9047V271.92H78.4727V282H75.9047Z" fill="white"/>
<circle cx="112" cy="183" r="24" fill="#134524"/>
<path d="M112.505 192.24C111.401 192.24 110.441 192.024 109.625 191.592C108.825 191.16 108.201 190.56 107.753 189.792C107.305 189.008 107.081 188.096 107.081 187.056V179.424C107.081 178.368 107.297 177.456 107.729 176.688C108.177 175.92 108.809 175.32 109.625 174.888C110.441 174.456 111.401 174.24 112.505 174.24C113.625 174.24 114.585 174.456 115.385 174.888C116.201 175.32 116.825 175.92 117.257 176.688C117.705 177.456 117.929 178.368 117.929 179.424V187.056C117.929 188.096 117.705 189.008 117.257 189.792C116.809 190.56 116.177 191.16 115.361 191.592C114.561 192.024 113.609 192.24 112.505 192.24ZM112.505 190.008C113.401 190.008 114.113 189.736 114.641 189.192C115.185 188.648 115.457 187.936 115.457 187.056V179.424C115.457 178.544 115.185 177.832 114.641 177.288C114.113 176.744 113.401 176.472 112.505 176.472C111.609 176.472 110.889 176.744 110.345 177.288C109.817 177.832 109.553 178.544 109.553 179.424V187.056C109.553 187.936 109.817 188.648 110.345 189.192C110.889 189.736 111.609 190.008 112.505 190.008ZM112.505 184.728C112.057 184.728 111.689 184.584 111.401 184.296C111.129 184.008 110.993 183.632 110.993 183.168C110.993 182.72 111.129 182.36 111.401 182.088C111.689 181.8 112.057 181.656 112.505 181.656C112.953 181.656 113.313 181.8 113.585 182.088C113.873 182.36 114.017 182.72 114.017 183.168C114.017 183.632 113.873 184.008 113.585 184.296C113.313 184.584 112.953 184.728 112.505 184.728Z" fill="white"/>
<circle cx="182" cy="113" r="24" fill="#E74040"/>
<path d="M169.197 121V118.696H173.853V105.736L169.173 109.216V106.408L173.181 103.48H176.445V118.696H180.213V121H169.197ZM183.588 121V118.696H188.244V105.736L183.564 109.216V106.408L187.572 103.48H190.836V118.696H194.604V121H183.588Z" fill="white"/>
<circle cx="275" cy="70" r="24" fill="#3C3C3C"/>
<path d="M262.197 79V76.696H266.853V63.736L262.173 67.216V64.408L266.181 61.48H269.445V76.696H273.213V79H262.197ZM281.7 79.24C280.596 79.24 279.636 79.024 278.82 78.592C278.02 78.16 277.396 77.56 276.948 76.792C276.5 76.008 276.276 75.096 276.276 74.056V66.424C276.276 65.368 276.492 64.456 276.924 63.688C277.372 62.92 278.004 62.32 278.82 61.888C279.636 61.456 280.596 61.24 281.7 61.24C282.82 61.24 283.78 61.456 284.58 61.888C285.396 62.32 286.02 62.92 286.452 63.688C286.9 64.456 287.124 65.368 287.124 66.424V74.056C287.124 75.096 286.9 76.008 286.452 76.792C286.004 77.56 285.372 78.16 284.556 78.592C283.756 79.024 282.804 79.24 281.7 79.24ZM281.7 77.008C282.596 77.008 283.308 76.736 283.836 76.192C284.38 75.648 284.652 74.936 284.652 74.056V66.424C284.652 65.544 284.38 64.832 283.836 64.288C283.308 63.744 282.596 63.472 281.7 63.472C280.804 63.472 280.084 63.744 279.54 64.288C279.012 64.832 278.748 65.544 278.748 66.424V74.056C278.748 74.936 279.012 75.648 279.54 76.192C280.084 76.736 280.804 77.008 281.7 77.008ZM281.7 71.728C281.252 71.728 280.884 71.584 280.596 71.296C280.324 71.008 280.188 70.632 280.188 70.168C280.188 69.72 280.324 69.36 280.596 69.088C280.884 68.8 281.252 68.656 281.7 68.656C282.148 68.656 282.508 68.8 282.78 69.088C283.068 69.36 283.212 69.72 283.212 70.168C283.212 70.632 283.068 71.008 282.78 71.296C282.508 71.584 282.148 71.728 281.7 71.728Z" fill="white"/>
<path d="M217.167 167.497C217.422 166.713 218.532 166.716 218.782 167.501L220.112 171.664C220.224 172.016 220.55 172.254 220.92 172.254H225.321C226.142 172.254 226.484 173.305 225.82 173.788L222.273 176.372C221.976 176.588 221.852 176.97 221.965 177.319L223.325 181.515C223.578 182.297 222.683 182.946 222.019 182.462L218.478 179.883C218.181 179.667 217.779 179.667 217.481 179.882L213.902 182.475C213.237 182.956 212.344 182.307 212.597 181.526L213.96 177.319C214.073 176.97 213.949 176.588 213.653 176.372L210.106 173.788C209.442 173.305 209.784 172.254 210.605 172.254H215.009C215.377 172.254 215.703 172.018 215.816 171.668L217.167 167.497Z" fill="#EDEDE8"/>
<path d="M145.167 284.509C145.422 283.725 146.532 283.727 146.782 284.512L148.112 288.676C148.224 289.028 148.55 289.266 148.92 289.266H153.321C154.142 289.266 154.484 290.317 153.82 290.8L150.273 293.384C149.976 293.6 149.852 293.982 149.965 294.331L151.325 298.527C151.578 299.309 150.683 299.958 150.019 299.474L146.478 296.895C146.181 296.679 145.779 296.678 145.481 296.894L141.902 299.487C141.237 299.968 140.344 299.319 140.597 298.538L141.96 294.331C142.073 293.982 141.949 293.6 141.653 293.384L138.106 290.8C137.442 290.317 137.784 289.266 138.605 289.266H143.009C143.377 289.266 143.703 289.029 143.816 288.679L145.167 284.509Z" fill="#EDEDE8"/>
<path d="M170.742 416.896C170.996 416.112 172.106 416.114 172.357 416.899L173.686 421.063C173.798 421.414 174.125 421.653 174.494 421.653H178.895C179.716 421.653 180.058 422.703 179.394 423.187L175.847 425.77C175.551 425.986 175.427 426.369 175.54 426.718L176.899 430.913C177.153 431.695 176.257 432.344 175.593 431.861L172.053 429.282C171.756 429.066 171.353 429.065 171.056 429.28L167.476 431.873C166.811 432.355 165.918 431.706 166.171 430.925L167.535 426.718C167.648 426.369 167.524 425.986 167.227 425.77L163.68 423.187C163.016 422.703 163.358 421.653 164.18 421.653H168.583C168.951 421.653 169.277 421.416 169.39 421.066L170.742 416.896Z" fill="#EDEDE8"/>
<path d="M288.242 496.509C288.496 495.725 289.606 495.727 289.857 496.512L291.186 500.676C291.298 501.028 291.625 501.266 291.994 501.266H296.395C297.216 501.266 297.558 502.317 296.894 502.8L293.347 505.384C293.051 505.6 292.927 505.982 293.04 506.331L294.399 510.527C294.653 511.309 293.757 511.958 293.093 511.474L289.553 508.895C289.256 508.679 288.853 508.678 288.556 508.894L284.976 511.487C284.311 511.968 283.418 511.319 283.671 510.538L285.035 506.331C285.148 505.982 285.024 505.6 284.727 505.384L281.18 502.8C280.516 502.317 280.858 501.266 281.68 501.266H286.083C286.451 501.266 286.777 501.029 286.89 500.679L288.242 496.509Z" fill="#EDEDE8"/>
<path d="M426.82 468.497C427.074 467.713 428.184 467.716 428.435 468.501L429.764 472.664C429.876 473.016 430.203 473.254 430.572 473.254H434.973C435.794 473.254 436.136 474.305 435.472 474.788L431.925 477.372C431.629 477.588 431.505 477.97 431.618 478.319L432.977 482.515C433.231 483.297 432.335 483.946 431.671 483.462L428.131 480.883C427.834 480.667 427.431 480.667 427.134 480.882L423.554 483.475C422.889 483.956 421.996 483.307 422.249 482.526L423.613 478.319C423.726 477.97 423.602 477.588 423.305 477.372L419.758 474.788C419.094 474.305 419.436 473.254 420.258 473.254H424.661C425.029 473.254 425.355 473.018 425.468 472.668L426.82 468.497Z" fill="#EDEDE8"/>
<path d="M506.402 354.509C506.656 353.725 507.766 353.727 508.017 354.512L509.346 358.676C509.458 359.028 509.785 359.266 510.154 359.266H514.555C515.376 359.266 515.718 360.317 515.054 360.8L511.507 363.384C511.211 363.6 511.087 363.982 511.2 364.331L512.559 368.527C512.813 369.309 511.917 369.958 511.253 369.474L507.713 366.895C507.416 366.679 507.013 366.678 506.716 366.894L503.136 369.487C502.471 369.968 501.578 369.319 501.831 368.538L503.195 364.331C503.308 363.982 503.184 363.6 502.887 363.384L499.34 360.8C498.676 360.317 499.018 359.266 499.84 359.266H504.243C504.611 359.266 504.937 359.029 505.05 358.679L506.402 354.509Z" fill="#EDEDE8"/>
<path d="M474.203 211.823C474.457 211.039 475.567 211.042 475.818 211.827L477.147 215.99C477.259 216.342 477.586 216.581 477.955 216.581H482.356C483.177 216.581 483.519 217.631 482.855 218.115L479.308 220.698C479.012 220.914 478.888 221.296 479.001 221.645L480.36 225.841C480.614 226.623 479.718 227.272 479.054 226.788L475.514 224.21C475.217 223.993 474.814 223.993 474.517 224.208L470.937 226.801C470.272 227.282 469.379 226.633 469.632 225.852L470.996 221.645C471.109 221.296 470.985 220.914 470.688 220.698L467.141 218.115C466.477 217.631 466.819 216.581 467.64 216.581H472.044C472.412 216.581 472.738 216.344 472.851 215.994L474.203 211.823Z" fill="#EDEDE8"/>
<path d="M357.167 136.509C357.422 135.725 358.532 135.727 358.782 136.512L360.112 140.676C360.224 141.028 360.55 141.266 360.92 141.266H365.321C366.142 141.266 366.484 142.317 365.82 142.8L362.273 145.384C361.976 145.6 361.852 145.982 361.965 146.331L363.325 150.527C363.578 151.309 362.683 151.958 362.019 151.474L358.478 148.895C358.181 148.679 357.779 148.678 357.481 148.894L353.902 151.487C353.237 151.968 352.344 151.319 352.597 150.538L353.96 146.331C354.073 145.982 353.949 145.6 353.653 145.384L350.106 142.8C349.442 142.317 349.784 141.266 350.605 141.266H355.009C355.377 141.266 355.703 141.029 355.816 140.679L357.167 136.509Z" fill="#EDEDE8"/>
</svg>
