<svg width="932" height="754" viewBox="0 0 932 754" fill="none" xmlns="http://www.w3.org/2000/svg">
<circle cx="354.304" cy="397.867" r="302.5" transform="rotate(-10.9142 354.304 397.867)" fill="#CACACA" stroke="#2D2D2D" stroke-width="2"/>
<circle cx="354.397" cy="398.359" r="216.591" transform="rotate(-10.9142 354.397 398.359)" fill="#2D2D2D"/>
<circle cx="354.446" cy="398.604" r="151.5" transform="rotate(-10.9142 354.446 398.604)" fill="#00C802" fill-opacity="0.6"/>
<circle cx="354.303" cy="397.867" r="302.5" transform="rotate(-33.4142 354.303 397.867)" stroke="#2D2D2D" stroke-width="2"/>
<line x1="101.551" y1="565.163" x2="606.551" y2="231.997" stroke="#2D2D2D" stroke-width="2"/>
<circle cx="354.304" cy="397.867" r="302.5" transform="rotate(-55.9142 354.304 397.867)" stroke="#2D2D2D" stroke-width="2"/>
<line x1="184.556" y1="648.228" x2="523.618" y2="147.167" stroke="#2D2D2D" stroke-width="2"/>
<circle cx="354.301" cy="397.866" r="302.5" transform="rotate(-100.914 354.301 397.866)" stroke="#2D2D2D" stroke-width="2"/>
<line x1="410.593" y1="695.084" x2="296.043" y2="101.027" stroke="#2D2D2D" stroke-width="2"/>
<line x1="367.445" y1="471.537" x2="337.151" y2="314.431" stroke="#2D2D2D" stroke-width="10"/>
<circle cx="354.301" cy="397.867" r="302.5" transform="rotate(-123.414 354.301 397.867)" stroke="#2D2D2D" stroke-width="2"/>
<line x1="520.049" y1="650.918" x2="186.883" y2="145.918" stroke="#2D2D2D" stroke-width="2"/>
<circle cx="354.301" cy="397.866" r="302.5" transform="rotate(-145.914 354.301 397.866)" stroke="#2D2D2D" stroke-width="2"/>
<line x1="604.271" y1="568.225" x2="103.21" y2="229.163" stroke="#2D2D2D" stroke-width="2"/>
<circle cx="354.302" cy="397.866" r="302.5" transform="rotate(-168.414 354.302 397.866)" stroke="#2D2D2D" stroke-width="2"/>
<line x1="650.437" y1="459.598" x2="57.7636" y2="338.093" stroke="#2D2D2D" stroke-width="2"/>
<circle cx="354.301" cy="397.866" r="302.5" transform="rotate(169.086 354.301 397.866)" stroke="#2D2D2D" stroke-width="2"/>
<line x1="651.518" y1="341.572" x2="57.4619" y2="456.122" stroke="#2D2D2D" stroke-width="2"/>
<circle cx="354.302" cy="397.867" r="302.5" transform="rotate(146.586 354.302 397.867)" stroke="#2D2D2D" stroke-width="2"/>
<circle cx="354.302" cy="397.866" r="302.5" transform="rotate(124.086 354.302 397.866)" stroke="#2D2D2D" stroke-width="2"/>
<circle cx="354.299" cy="397.868" r="302.5" transform="rotate(101.586 354.299 397.868)" stroke="#2D2D2D" stroke-width="2"/>
<circle cx="354.298" cy="397.869" r="312.5" transform="rotate(101.586 354.298 397.869)" stroke="#2D2D2D" stroke-width="20"/>
<line x1="414.379" y1="102.047" x2="292.874" y2="694.721" stroke="#2D2D2D" stroke-width="2"/>
<circle cx="354.302" cy="397.867" r="15" transform="rotate(-10.9142 354.302 397.867)" fill="#2D2D2D"/>
<circle cx="354.302" cy="397.867" r="15" transform="rotate(-10.9142 354.302 397.867)" fill="#2D2D2D"/>
<circle cx="354.302" cy="397.867" r="15" transform="rotate(-10.9142 354.302 397.867)" fill="#2D2D2D"/>
<circle cx="367.627" cy="471.502" r="10" transform="rotate(-10.9142 367.627 471.502)" fill="#2D2D2D"/>
<circle cx="337.305" cy="314.402" r="10" transform="rotate(-10.9142 337.305 314.402)" fill="#2D2D2D"/>
<circle cx="431.202" cy="383.036" r="10" transform="rotate(-100.914 431.202 383.036)" fill="#2D2D2D"/>
<line x1="436.707" y1="381.8" x2="279.602" y2="412.094" stroke="#2D2D2D" stroke-width="10"/>
<circle cx="274.096" cy="413.33" r="10" transform="rotate(-100.914 274.096 413.33)" fill="#2D2D2D"/>
<circle cx="355.892" cy="139.391" r="24" transform="rotate(-10.9142 355.892 139.391)" fill="#FF5A00"/>
<path d="M357.109 148.567C355.616 148.855 354.334 148.711 353.261 148.135C352.186 147.544 351.469 146.615 351.111 145.348L353.632 144.862C353.832 145.475 354.193 145.911 354.715 146.169C355.238 146.426 355.899 146.478 356.701 146.324C357.596 146.151 358.226 145.785 358.591 145.226C358.968 144.648 359.074 143.927 358.907 143.063L358.584 141.39C358.415 140.51 358.057 139.878 357.51 139.495C356.961 139.096 356.238 138.982 355.343 139.155C354.777 139.264 354.316 139.491 353.959 139.837C353.599 140.167 353.369 140.578 353.268 141.07L350.746 141.557L349.033 132.037L358.412 130.228L358.857 132.538L351.905 133.878L352.89 139.237L353.55 139.11L352.984 139.854C352.842 139.116 353.021 138.478 353.52 137.942C354.02 137.406 354.756 137.044 355.73 136.856C357.129 136.586 358.296 136.809 359.232 137.525C360.182 138.222 360.806 139.348 361.106 140.903L361.429 142.577C361.722 144.1 361.492 145.4 360.738 146.474C359.984 147.548 358.774 148.246 357.109 148.567Z" fill="white"/>
<circle cx="451.839" cy="161.627" r="24" transform="rotate(-10.9142 451.839 161.627)" fill="#2D2D2D"/>
<path d="M454.084 170.604C452.984 170.816 451.997 170.811 451.123 170.589C450.249 170.366 449.525 169.952 448.952 169.345C448.376 168.723 447.999 167.948 447.82 167.022C447.62 165.985 447.732 165.042 448.155 164.195C448.578 163.348 449.326 162.535 450.398 161.758L452.65 160.126C453.221 159.707 453.632 159.22 453.884 158.666C454.132 158.097 454.199 157.514 454.084 156.917C453.948 156.21 453.612 155.696 453.078 155.375C452.544 155.055 451.884 154.97 451.098 155.122C450.312 155.273 449.725 155.606 449.335 156.121C448.959 156.618 448.838 157.219 448.975 157.926C449.087 158.508 449.364 159.016 449.807 159.452C450.246 159.873 450.792 160.167 451.443 160.334L454.136 160.989C455.489 161.33 456.513 161.826 457.209 162.474C457.917 163.103 458.369 163.928 458.566 164.949C458.839 166.363 458.568 167.581 457.755 168.601C456.957 169.618 455.733 170.286 454.084 170.604ZM453.656 168.389C454.536 168.22 455.191 167.857 455.622 167.301C456.05 166.73 456.191 166.067 456.045 165.313C455.927 164.701 455.645 164.168 455.2 163.716C454.751 163.249 454.191 162.925 453.521 162.745L450.744 162.034C449.476 161.708 448.49 161.246 447.789 160.648C447.087 160.05 446.64 159.256 446.449 158.267C446.283 157.403 446.34 156.601 446.621 155.863C446.918 155.121 447.409 154.497 448.093 153.99C448.775 153.468 449.634 153.106 450.671 152.906C451.708 152.706 452.64 152.722 453.466 152.954C454.29 153.17 454.97 153.568 455.506 154.149C456.041 154.731 456.393 155.453 456.559 156.317C456.753 157.323 456.634 158.226 456.202 159.026C455.785 159.823 455.044 160.626 453.977 161.435L451.64 163.132C451.098 163.53 450.704 164.021 450.458 164.606C450.228 165.188 450.171 165.778 450.286 166.375C450.434 167.145 450.813 167.715 451.423 168.087C452.032 168.458 452.777 168.559 453.656 168.389Z" fill="white"/>
<circle cx="536.547" cy="220.656" r="24" transform="rotate(-10.9142 536.547 220.656)" fill="#FF5A00"/>
<path d="M534.512 229.196L537.819 213.135L531.809 214.294L532.295 216.816L529.774 217.302L528.838 212.447L539.89 210.316L540.363 212.767L537.245 228.669L534.512 229.196Z" fill="white"/>
<circle cx="594.603" cy="305.193" r="24" transform="rotate(-10.9142 594.603 305.193)" fill="#2D2D2D"/>
<path d="M584.529 315.283L584.093 313.021L588.664 312.139L586.211 299.413L582.274 303.717L581.743 300.959L585.124 297.325L588.329 296.707L591.21 311.648L594.909 310.935L595.346 313.197L584.529 315.283ZM603.748 311.821C602.617 312.04 601.581 311.995 600.642 311.687C599.703 311.379 598.916 310.847 598.281 310.089C597.643 309.316 597.216 308.372 597.001 307.256C596.838 306.408 596.8 305.535 596.888 304.638C596.988 303.723 597.206 302.825 597.542 301.946L600.432 294.374L603.26 293.828L599.791 302.71L599.922 302.758C600.149 302.242 600.499 301.816 600.972 301.48C601.457 301.126 602.022 300.886 602.666 300.762C603.593 300.583 604.445 300.647 605.221 300.954C605.997 301.261 606.651 301.778 607.182 302.507C607.711 303.219 608.08 304.118 608.289 305.202C608.501 306.302 608.451 307.313 608.141 308.237C607.83 309.16 607.304 309.938 606.562 310.57C605.817 311.186 604.879 311.603 603.748 311.821ZM603.302 309.634C604.244 309.453 604.939 309.001 605.387 308.279C605.834 307.557 605.961 306.694 605.767 305.688C605.573 304.683 605.134 303.928 604.451 303.424C603.767 302.921 602.954 302.76 602.011 302.942C601.068 303.123 600.373 303.575 599.926 304.297C599.479 305.019 599.352 305.882 599.546 306.888C599.74 307.893 600.178 308.648 600.862 309.151C601.546 309.655 602.359 309.816 603.302 309.634Z" fill="white"/>
<circle cx="613.159" cy="401.42" r="24" transform="rotate(-10.9142 613.159 401.42)" fill="#FF5A00"/>
<path d="M603.085 411.51L602.648 409.248L607.22 408.366L604.766 395.641L600.83 399.944L600.298 397.187L603.679 393.553L606.884 392.935L609.765 407.876L613.465 407.162L613.901 409.424L603.085 411.51ZM622.068 408.094C620.984 408.303 620.002 408.281 619.122 408.027C618.242 407.773 617.511 407.319 616.928 406.665C616.359 405.993 615.978 405.162 615.788 404.172L618.333 403.681C618.499 404.546 618.873 405.174 619.454 405.567C620.051 405.957 620.789 406.068 621.669 405.898C622.564 405.725 623.207 405.341 623.597 404.744C623.987 404.147 624.102 403.433 623.941 402.6L623.696 401.327C623.526 400.448 623.153 399.819 622.575 399.442C621.994 399.049 621.256 398.938 620.36 399.111L618.522 399.465L618.058 397.062L621.328 392.472L614.541 393.78L614.11 391.541L623.489 389.733L623.953 392.137L620.075 397.504L619.956 396.891C621.59 396.576 622.973 396.774 624.104 397.485C625.235 398.195 625.946 399.305 626.237 400.813L626.487 402.109C626.677 403.099 626.626 404.013 626.331 404.852C626.034 405.675 625.516 406.37 624.778 406.936C624.055 407.499 623.152 407.885 622.068 408.094Z" fill="white"/>
<circle cx="590.698" cy="501.483" r="24" transform="rotate(-10.9142 590.698 501.483)" fill="#2D2D2D"/>
<path d="M586.66 510.409L586.174 507.887L590.441 501.369C591.094 500.364 591.544 499.486 591.791 498.738C592.05 497.971 592.115 497.25 591.985 496.574C591.815 495.695 591.438 495.05 590.854 494.641C590.286 494.23 589.586 494.104 588.753 494.264C587.842 494.44 587.171 494.847 586.739 495.484C586.321 496.102 586.2 496.867 586.375 497.778L583.83 498.269C583.656 497.195 583.722 496.229 584.029 495.371C584.333 494.498 584.853 493.77 585.588 493.188C586.323 492.607 587.241 492.21 588.34 491.998C589.393 491.795 590.351 491.822 591.216 492.079C592.08 492.336 592.795 492.792 593.362 493.449C593.929 494.106 594.309 494.937 594.503 495.942C594.7 496.963 594.625 498.012 594.279 499.09C593.948 500.164 593.301 501.413 592.337 502.837L589.207 507.522L596.725 506.073L597.17 508.382L586.66 510.409Z" fill="white"/>
<circle cx="533.443" cy="584.831" r="24" transform="rotate(-10.9142 533.443 584.831)" fill="#FF5A00"/>
<path d="M534.305 593.057C533.221 593.266 532.239 593.243 531.359 592.989C530.479 592.735 529.748 592.281 529.166 591.628C528.596 590.955 528.216 590.124 528.025 589.135L530.57 588.644C530.737 589.508 531.11 590.137 531.691 590.53C532.288 590.92 533.026 591.03 533.906 590.86C534.801 590.688 535.444 590.303 535.834 589.706C536.224 589.11 536.339 588.395 536.179 587.562L535.933 586.29C535.764 585.41 535.39 584.781 534.812 584.404C534.231 584.011 533.493 583.901 532.597 584.073L530.759 584.428L530.296 582.024L533.566 577.434L526.779 578.743L526.347 576.504L535.726 574.695L536.19 577.099L532.312 582.466L532.194 581.854C533.828 581.539 535.21 581.736 536.341 582.447C537.472 583.158 538.183 584.267 538.474 585.775L538.724 587.072C538.915 588.061 538.863 588.976 538.568 589.815C538.271 590.638 537.753 591.332 537.015 591.898C536.292 592.461 535.389 592.847 534.305 593.057Z" fill="white"/>
<circle cx="450.113" cy="638.581" r="24" transform="rotate(-10.9142 450.113 638.581)" fill="#2D2D2D"/>
<path d="M440.039 648.671L439.602 646.409L444.174 645.527L441.72 632.801L437.784 637.105L437.252 634.347L440.633 630.714L443.838 630.096L446.719 645.036L450.419 644.323L450.855 646.585L440.039 648.671ZM454.122 645.955L453.636 643.434L457.903 636.916C458.556 635.91 459.006 635.033 459.253 634.285C459.512 633.518 459.577 632.796 459.447 632.121C459.277 631.241 458.9 630.597 458.316 630.188C457.748 629.776 457.048 629.65 456.215 629.811C455.304 629.987 454.633 630.393 454.201 631.03C453.783 631.649 453.662 632.414 453.837 633.325L451.292 633.816C451.118 632.741 451.184 631.775 451.491 630.917C451.795 630.044 452.315 629.317 453.05 628.735C453.785 628.153 454.703 627.756 455.802 627.544C456.855 627.341 457.813 627.368 458.678 627.625C459.542 627.882 460.257 628.339 460.824 628.996C461.391 629.652 461.771 630.483 461.965 631.489C462.162 632.51 462.087 633.559 461.741 634.636C461.41 635.71 460.763 636.959 459.799 638.383L456.669 643.069L464.187 641.619L464.632 643.929L454.122 645.955Z" fill="white"/>
<circle cx="352.904" cy="657.326" r="24" transform="rotate(-10.9142 352.904 657.326)" fill="#FF5A00"/>
<path d="M343.019 668.398L342.583 666.135L347.155 665.254L344.701 652.528L340.764 656.831L340.233 654.074L343.614 650.44L346.819 649.822L349.7 664.763L353.4 664.049L353.836 666.312L343.019 668.398ZM362.167 664.95C360.675 665.237 359.392 665.094 358.32 664.518C357.245 663.927 356.528 662.998 356.169 661.731L358.691 661.245C358.891 661.858 359.252 662.294 359.774 662.551C360.296 662.809 360.958 662.861 361.759 662.706C362.655 662.534 363.285 662.168 363.65 661.609C364.027 661.031 364.132 660.31 363.966 659.446L363.643 657.772C363.473 656.893 363.115 656.261 362.569 655.878C362.019 655.478 361.297 655.365 360.401 655.538C359.836 655.647 359.374 655.874 359.018 656.22C358.658 656.55 358.427 656.961 358.326 657.453L355.805 657.939L354.091 648.42L363.471 646.611L363.916 648.921L356.964 650.261L357.948 655.62L358.608 655.492L358.043 656.237C357.901 655.499 358.079 654.861 358.579 654.325C359.078 653.789 359.815 653.427 360.789 653.239C362.187 652.969 363.355 653.192 364.291 653.908C365.24 654.605 365.865 655.731 366.165 657.286L366.487 658.959C366.781 660.483 366.551 661.782 365.797 662.857C365.042 663.931 363.833 664.629 362.167 664.95Z" fill="white"/>
<circle cx="257.372" cy="631.955" r="24" transform="rotate(-10.9142 257.372 631.955)" fill="#2D2D2D"/>
<path d="M259.64 640.927C258.509 641.145 257.474 641.101 256.535 640.793C255.595 640.485 254.808 639.953 254.173 639.195C253.535 638.422 253.109 637.478 252.894 636.362C252.73 635.514 252.692 634.641 252.78 633.744C252.881 632.829 253.099 631.931 253.434 631.052L256.325 623.479L259.153 622.934L255.684 631.816L255.815 631.864C256.041 631.347 256.391 630.922 256.864 630.586C257.35 630.232 257.915 629.992 258.559 629.868C259.486 629.689 260.337 629.753 261.113 630.06C261.889 630.366 262.543 630.884 263.075 631.613C263.603 632.325 263.972 633.224 264.181 634.308C264.393 635.408 264.344 636.419 264.033 637.343C263.722 638.266 263.196 639.044 262.454 639.676C261.709 640.292 260.771 640.709 259.64 640.927ZM259.194 638.74C260.137 638.558 260.832 638.107 261.279 637.385C261.727 636.663 261.853 635.8 261.66 634.794C261.466 633.789 261.027 633.034 260.343 632.53C259.659 632.027 258.846 631.866 257.904 632.048C256.961 632.229 256.266 632.681 255.818 633.403C255.371 634.125 255.244 634.988 255.438 635.994C255.632 636.999 256.071 637.754 256.755 638.257C257.438 638.761 258.251 638.922 259.194 638.74Z" fill="white"/>
<circle cx="176.367" cy="576.285" r="24" transform="rotate(-10.9142 176.367 576.285)" fill="#FF5A00"/>
<path d="M175.668 585.586L179.137 576.704L179.005 576.656C178.779 577.173 178.423 577.608 177.937 577.962C177.464 578.298 176.906 578.528 176.262 578.652C175.335 578.831 174.483 578.767 173.707 578.46C172.931 578.154 172.277 577.636 171.746 576.907C171.214 576.179 170.845 575.281 170.639 574.212C170.424 573.097 170.474 572.085 170.787 571.177C171.098 570.254 171.626 569.484 172.371 568.868C173.128 568.233 174.065 567.808 175.18 567.593C176.311 567.375 177.347 567.419 178.286 567.727C179.225 568.035 180.012 568.567 180.647 569.325C181.282 570.082 181.708 571.027 181.927 572.158C182.087 572.991 182.117 573.865 182.017 574.78C181.932 575.693 181.722 576.589 181.386 577.468L178.496 585.041L175.668 585.586ZM176.917 576.472C177.86 576.291 178.555 575.839 179.002 575.117C179.449 574.395 179.576 573.532 179.382 572.526C179.188 571.521 178.75 570.766 178.066 570.263C177.382 569.759 176.569 569.598 175.626 569.78C174.684 569.962 173.989 570.413 173.541 571.135C173.094 571.857 172.967 572.72 173.161 573.726C173.355 574.731 173.794 575.486 174.477 575.99C175.161 576.493 175.974 576.654 176.917 576.472Z" fill="white"/>
<circle cx="117.517" cy="492.92" r="24" transform="rotate(-10.9142 117.517 492.92)" fill="#2D2D2D"/>
<path d="M114.697 502.629L114.261 500.367L118.833 499.485L116.379 486.76L112.443 491.063L111.911 488.306L115.292 484.672L118.497 484.054L121.378 498.995L125.078 498.281L125.514 500.543L114.697 502.629Z" fill="white"/>
<circle cx="98.9626" cy="396.692" r="24" transform="rotate(-10.9142 98.9626 396.692)" fill="#FF5A00"/>
<path d="M103.329 403.998L102.639 400.416L94.9325 401.902L94.1963 398.084L98.9987 386.99L101.827 386.445L96.7653 398.224L96.9426 399.143L102.198 398.13L101.421 394.1L103.942 393.614L105.851 403.511L103.329 403.998Z" fill="white"/>
<circle cx="120.027" cy="299.954" r="24" transform="rotate(-10.9142 120.027 299.954)" fill="#00C802"/>
<path d="M122.272 308.932C121.188 309.141 120.204 309.11 119.321 308.841C118.454 308.568 117.728 308.097 117.142 307.428C116.554 306.743 116.161 305.889 115.965 304.868L114.52 297.374C114.32 296.337 114.359 295.401 114.638 294.565C114.932 293.726 115.439 293.017 116.159 292.439C116.878 291.86 117.78 291.466 118.864 291.257C119.964 291.045 120.947 291.075 121.814 291.348C122.698 291.618 123.424 292.089 123.993 292.761C124.579 293.43 124.971 294.283 125.171 295.32L126.616 302.814C126.813 303.835 126.766 304.773 126.475 305.628C126.18 306.467 125.673 307.176 124.954 307.754C124.25 308.33 123.356 308.722 122.272 308.932ZM121.849 306.74C122.729 306.57 123.377 306.168 123.792 305.534C124.223 304.897 124.356 304.146 124.189 303.282L122.744 295.788C122.577 294.924 122.176 294.277 121.538 293.846C120.917 293.411 120.166 293.279 119.287 293.449C118.407 293.618 117.751 294.022 117.32 294.659C116.905 295.293 116.78 296.042 116.947 296.906L118.392 304.4C118.558 305.264 118.953 305.913 119.574 306.348C120.211 306.779 120.97 306.91 121.849 306.74ZM120.85 301.555C120.41 301.64 120.021 301.568 119.684 301.34C119.362 301.109 119.158 300.765 119.07 300.31C118.985 299.87 119.05 299.491 119.266 299.172C119.494 298.835 119.828 298.624 120.268 298.539C120.708 298.454 121.089 298.527 121.41 298.759C121.745 298.971 121.954 299.297 122.039 299.737C122.127 300.193 122.057 300.589 121.828 300.927C121.616 301.261 121.29 301.471 120.85 301.555Z" fill="white"/>
<circle cx="175.507" cy="217.967" r="24" transform="rotate(-10.9142 175.507 217.967)" fill="#FF5A00"/>
<path d="M164.451 228.246L164.015 225.984L168.586 225.102L166.133 212.376L162.196 216.68L161.664 213.922L165.046 210.288L168.25 209.67L171.131 224.611L174.831 223.898L175.268 226.16L164.451 228.246ZM178.581 225.521L178.145 223.259L182.717 222.377L180.263 209.652L176.326 213.955L175.795 211.198L179.176 207.564L182.381 206.946L185.262 221.887L188.962 221.173L189.398 223.435L178.581 225.521Z" fill="white"/>
<circle cx="258.683" cy="158.136" r="24" transform="rotate(-10.9142 258.683 158.136)" fill="#2D2D2D"/>
<path d="M247.816 169.397L247.38 167.135L251.952 166.253L249.498 153.528L245.561 157.831L245.03 155.074L248.411 151.44L251.616 150.822L254.497 165.762L258.197 165.049L258.633 167.311L247.816 169.397ZM267.011 165.94C265.927 166.149 264.944 166.119 264.061 165.849C263.193 165.576 262.467 165.105 261.882 164.436C261.293 163.751 260.901 162.898 260.704 161.877L259.259 154.383C259.059 153.346 259.098 152.41 259.377 151.574C259.672 150.735 260.179 150.026 260.898 149.447C261.617 148.869 262.519 148.475 263.603 148.266C264.703 148.054 265.686 148.084 266.554 148.357C267.437 148.626 268.163 149.097 268.733 149.77C269.318 150.439 269.711 151.292 269.911 152.329L271.356 159.823C271.553 160.844 271.505 161.782 271.214 162.637C270.919 163.476 270.412 164.184 269.693 164.763C268.989 165.339 268.095 165.731 267.011 165.94ZM266.589 163.748C267.469 163.579 268.116 163.177 268.532 162.543C268.963 161.906 269.095 161.155 268.928 160.291L267.483 152.797C267.317 151.933 266.915 151.285 266.278 150.854C265.656 150.42 264.906 150.288 264.026 150.457C263.146 150.627 262.491 151.03 262.059 151.667C261.644 152.302 261.52 153.051 261.686 153.915L263.131 161.409C263.298 162.273 263.692 162.922 264.313 163.356C264.95 163.787 265.709 163.918 266.589 163.748ZM265.589 158.564C265.149 158.649 264.761 158.577 264.423 158.349C264.102 158.117 263.897 157.774 263.809 157.318C263.724 156.879 263.79 156.499 264.005 156.181C264.233 155.843 264.567 155.632 265.007 155.548C265.447 155.463 265.828 155.536 266.15 155.767C266.484 155.98 266.693 156.306 266.778 156.746C266.866 157.201 266.796 157.598 266.568 157.935C266.355 158.27 266.029 158.479 265.589 158.564Z" fill="white"/>
<path d="M220.357 264.82C220.458 264.001 221.548 263.794 221.943 264.517L224.036 268.354C224.213 268.678 224.579 268.85 224.942 268.78L229.263 267.947C230.069 267.791 230.604 268.758 230.044 269.359L227.05 272.567C226.8 272.835 226.75 273.234 226.927 273.555L229.057 277.418C229.454 278.138 228.697 278.945 227.953 278.595L223.989 276.733C223.656 276.577 223.261 276.653 223.01 276.921L219.986 280.145C219.424 280.743 218.424 280.275 218.525 279.46L219.067 275.071C219.112 274.707 218.918 274.355 218.586 274.199L214.614 272.334C213.871 271.985 214.007 270.889 214.814 270.733L219.138 269.899C219.499 269.83 219.774 269.535 219.819 269.17L220.357 264.82Z" fill="#EDEDE8"/>
<path d="M171.815 393.347C171.916 392.529 173.006 392.321 173.401 393.045L175.494 396.881C175.671 397.205 176.037 397.378 176.4 397.308L180.721 396.475C181.527 396.319 182.062 397.286 181.502 397.886L178.508 401.095C178.258 401.363 178.208 401.762 178.385 402.083L180.515 405.945C180.912 406.665 180.155 407.472 179.411 407.123L175.447 405.261C175.114 405.105 174.719 405.18 174.468 405.448L171.444 408.672C170.882 409.271 169.882 408.802 169.983 407.988L170.525 403.599C170.57 403.234 170.376 402.883 170.044 402.727L166.072 400.861C165.329 400.512 165.465 399.416 166.272 399.261L170.596 398.427C170.957 398.357 171.232 398.063 171.277 397.698L171.815 393.347Z" fill="#EDEDE8"/>
<path d="M221.992 518.497C222.093 517.679 223.184 517.471 223.579 518.195L225.672 522.031C225.849 522.355 226.215 522.528 226.577 522.458L230.899 521.624C231.705 521.469 232.24 522.436 231.679 523.036L228.686 526.245C228.436 526.513 228.386 526.911 228.563 527.233L230.693 531.095C231.089 531.815 230.333 532.622 229.589 532.273L225.625 530.411C225.292 530.255 224.897 530.33 224.646 530.598L221.621 533.822C221.06 534.421 220.06 533.952 220.161 533.138L220.703 528.748C220.748 528.384 220.554 528.033 220.222 527.877L216.25 526.011C215.506 525.662 215.643 524.566 216.45 524.411L220.774 523.577C221.135 523.507 221.41 523.213 221.455 522.848L221.992 518.497Z" fill="#EDEDE8"/>
<path d="M352.441 574.423C352.542 573.605 353.632 573.397 354.027 574.12L356.12 577.957C356.297 578.281 356.663 578.453 357.026 578.384L361.347 577.55C362.153 577.395 362.688 578.361 362.128 578.962L359.134 582.17C358.884 582.439 358.834 582.837 359.011 583.159L361.141 587.021C361.538 587.741 360.781 588.548 360.037 588.198L356.073 586.337C355.74 586.18 355.345 586.256 355.094 586.524L352.07 589.748C351.508 590.346 350.508 589.878 350.609 589.063L351.151 584.674C351.196 584.31 351.002 583.958 350.67 583.802L346.698 581.937C345.955 581.588 346.091 580.492 346.898 580.336L351.222 579.503C351.583 579.433 351.858 579.139 351.903 578.774L352.441 574.423Z" fill="#EDEDE8"/>
<path d="M483.208 520.679C483.309 519.861 484.4 519.653 484.795 520.377L486.888 524.213C487.065 524.537 487.431 524.71 487.793 524.64L492.114 523.807C492.921 523.651 493.456 524.618 492.895 525.218L489.902 528.427C489.651 528.695 489.602 529.094 489.779 529.415L491.908 533.278C492.305 533.997 491.549 534.804 490.805 534.455L486.841 532.593C486.508 532.437 486.113 532.513 485.861 532.781L482.837 536.004C482.276 536.603 481.276 536.135 481.377 535.32L481.919 530.931C481.964 530.567 481.77 530.215 481.437 530.059L477.465 528.194C476.722 527.845 476.859 526.748 477.665 526.593L481.99 525.759C482.351 525.69 482.626 525.395 482.671 525.03L483.208 520.679Z" fill="#EDEDE8"/>
<path d="M539.768 393.685C539.869 392.867 540.959 392.659 541.354 393.383L543.447 397.219C543.624 397.543 543.99 397.716 544.353 397.646L548.674 396.812C549.48 396.657 550.015 397.624 549.455 398.224L546.461 401.433C546.211 401.701 546.161 402.099 546.339 402.421L548.468 406.283C548.865 407.003 548.109 407.81 547.365 407.461L543.4 405.599C543.068 405.443 542.672 405.518 542.421 405.786L539.397 409.01C538.835 409.609 537.836 409.14 537.936 408.326L538.478 403.936C538.523 403.572 538.329 403.221 537.997 403.065L534.025 401.199C533.282 400.85 533.419 399.754 534.225 399.599L538.549 398.765C538.91 398.695 539.185 398.401 539.23 398.036L539.768 393.685Z" fill="#EDEDE8"/>
<path d="M481.135 259.677C481.236 258.859 482.327 258.651 482.721 259.375L484.815 263.211C484.991 263.535 485.357 263.708 485.72 263.638L490.041 262.804C490.848 262.649 491.382 263.616 490.822 264.216L487.828 267.424C487.578 267.693 487.529 268.091 487.706 268.413L489.835 272.275C490.232 272.995 489.476 273.802 488.732 273.453L484.767 271.591C484.435 271.435 484.039 271.51 483.788 271.778L480.764 275.002C480.202 275.601 479.203 275.132 479.303 274.318L479.845 269.928C479.89 269.564 479.696 269.213 479.364 269.057L475.392 267.191C474.649 266.842 474.786 265.746 475.592 265.591L479.916 264.757C480.277 264.687 480.552 264.393 480.598 264.028L481.135 259.677Z" fill="#EDEDE8"/>
<path d="M351.957 207.884C352.058 207.066 353.149 206.858 353.544 207.582L355.637 211.418C355.814 211.742 356.18 211.915 356.542 211.845L360.864 211.012C361.67 210.856 362.205 211.823 361.644 212.423L358.651 215.632C358.4 215.9 358.351 216.299 358.528 216.62L360.657 220.482C361.054 221.202 360.298 222.009 359.554 221.66L355.59 219.798C355.257 219.642 354.862 219.718 354.61 219.986L351.586 223.209C351.025 223.808 350.025 223.339 350.126 222.525L350.668 218.136C350.713 217.772 350.519 217.42 350.186 217.264L346.214 215.399C345.471 215.049 345.608 213.953 346.414 213.798L350.739 212.964C351.1 212.894 351.375 212.6 351.42 212.235L351.957 207.884Z" fill="#EDEDE8"/>
</svg>
